<svg xmlns="http://www.w3.org/2000/svg" xmlns:xlink="http://www.w3.org/1999/xlink" version="1.1" x="0px" y="0px" viewBox="0 0 383.005 415.544" enable-background="new 0 0 383.005 415.544" xml:space="preserve"><g><path d="M162.168,22.295c-18.78,0-33.97,15.183-33.97,33.87c0,18.688,15.189,33.871,33.97,33.871s33.97-15.183,33.97-33.871   C196.138,37.478,180.948,22.295,162.168,22.295L162.168,22.295z M119.694,56.165c0-23.402,19.016-42.374,42.474-42.374   s42.474,18.972,42.474,42.374c0,23.403-19.016,42.375-42.474,42.375S119.694,79.568,119.694,56.165L119.694,56.165z"></path><path d="M119.509,245.574l0.136-1.525c0.256,3.822-0.815,7.6-3.039,10.713c-2.05,3.164-5.134,5.586-8.861,6.705l-74.23,23.221   c-3.828,1.195-6.927,3.959-8.56,7.457c-1.71,3.498-1.895,7.672-0.381,11.416l36.527,90.922   c4.087,10.254,15.609,15.178,25.664,11.139c10.209-4.066,15.201-15.639,11.145-25.85l-19.422-48.359   c-1.818-4.416-1.636-9.35,0.366-13.607c2.037-4.326,5.812-7.562,10.417-8.893l63.673-20.033c2.984-0.879,6.142-1.361,9.224-1.361   c3.165,0,6.298,0.445,9.284,1.379l177.45,55.379c10.423,3.295,21.455-2.498,24.662-12.883c3.295-10.42-2.465-21.566-12.879-24.873   l-143.894-44.994c-3.814-1.09-6.978-3.543-9.064-6.768c-2.292-3.217-3.272-7.123-2.812-11.023l9.092-107.731   c0.065-2.025,0.571-4.22,1.382-6.109c0.882-1.764,2.178-3.504,3.433-4.768L312.13,30.23c5.031-5.031,4.96-13.099,0.025-17.968   c-4.869-4.934-12.912-5.031-17.943,0l-87.925,87.924c-11.742,11.743-27.605,18.369-44.12,18.369   c-16.514,0-32.376-6.626-44.119-18.369L30.104,12.242c-4.869-4.935-12.892-5.013-17.924,0.02   c-4.878,4.878-4.93,12.947,0.045,17.988l93.238,94.826c1.27,1.269,2.591,3.031,3.486,4.822c0.722,1.688,1.312,3.875,1.537,5.671   l8.711,104.689c0.187,1.092,0.218,2.199,0.094,3.295C119.348,244.215,119.484,244.9,119.509,245.574L119.509,245.574z    M111.159,244.617c0.132-0.529-0.396-1.061-0.396-1.588c0.132-0.529,0.132-1.061,0-1.588l-8.733-104.994   c-0.131-1.05-0.399-2.058-0.793-2.977c-0.394-0.788-0.999-1.594-1.787-2.382L6.166,36.218c-8.221-8.33-8.221-21.748,0-29.969   c8.331-8.331,21.749-8.331,29.971,0l87.924,87.924c10.167,10.166,23.874,15.878,38.106,15.878c14.233,0,27.941-5.712,38.107-15.878   l87.925-87.924c8.33-8.331,21.748-8.331,29.969,0c8.331,8.221,8.331,21.639,0,29.969l-93.283,94.871   c-0.787,0.788-1.392,1.594-1.785,2.382c-0.395,0.919-0.597,1.927-0.597,2.977l-9.129,108.169c-0.257,1.926,0.233,3.818,1.39,5.357   c1.026,1.67,2.568,2.861,4.365,3.375l144.094,45.053c14.906,4.715,23.171,20.621,18.458,35.527   c-4.604,14.908-20.422,23.172-35.328,18.459l-177.438-55.375c-2.104-0.658-4.379-0.992-6.748-0.992   c-2.236,0-4.511,0.334-6.747,0.992l-63.711,20.047c-2.278,0.633-4.147,2.213-5.16,4.365s-1.084,4.596-0.198,6.748l19.45,48.428   c5.81,14.58-1.3,31.107-15.877,36.916c-14.471,5.811-30.909-1.299-36.719-15.877l-36.52-90.902   c-2.405-5.949-2.189-12.562,0.596-18.258c2.658-5.697,7.618-10.01,13.695-11.91l74.229-23.221c1.799-0.514,3.34-1.705,4.366-3.375   C110.728,248.436,111.288,246.543,111.159,244.617L111.159,244.617z"></path></g></svg>