<svg xmlns="http://www.w3.org/2000/svg" xmlns:xlink="http://www.w3.org/1999/xlink" xml:space="preserve" version="1.1" style="shape-rendering:geometricPrecision;text-rendering:geometricPrecision;image-rendering:optimizeQuality;" viewBox="0 0 60000 60000" x="0px" y="0px" fill-rule="evenodd" clip-rule="evenodd"><defs><style type="text/css">
   
    .fil0 {fill:black;fill-rule:nonzero}
   
  </style></defs><g><path class="fil0" d="M26975 16695c0,-14 1,-28 4,-41 5,-99 12,-225 20,-359 5,-87 10,-177 15,-263 0,-4 0,-8 1,-12 10,-173 17,-332 19,-421 -237,-174 -356,-487 -384,-793l0 -1c-18,-198 3,-396 54,-548 15,-46 34,-89 55,-127 -164,-406 -123,-930 59,-1400 158,-408 424,-783 756,-1011 -91,-135 -93,-333 -53,-526 40,-189 121,-385 188,-488 16,-25 32,-45 46,-61l1 0c140,-155 580,-189 1060,-158 570,37 1231,155 1447,260 244,118 449,445 542,742 31,99 51,196 56,285 7,105 -6,200 -43,277 -12,24 -25,46 -40,65 99,76 129,111 176,166 24,28 52,61 104,113 188,190 308,602 337,1027 28,402 -21,830 -166,1101 -43,112 -73,215 -108,337 -23,80 -49,167 -70,236 -39,126 -50,245 -59,361 -22,253 -42,488 -284,794 -65,82 -114,160 -162,238 -69,111 -138,221 -254,352 -4,5 -13,25 -36,65 -73,126 -193,333 -308,458 -47,51 -82,98 -113,140 -52,71 -96,130 -157,175 -1,71 5,128 10,189 4,41 8,84 8,94 3,36 18,75 37,115 4,7 7,14 10,21l10 21c31,62 61,124 80,201 18,42 130,212 197,312 21,31 37,55 53,82 51,84 115,185 188,286 65,90 133,172 194,223 7,6 17,12 29,20 19,7 37,17 52,30 34,18 67,35 79,41l1 0 27 14 19 17c22,19 105,19 174,20 30,0 59,0 83,1 75,-8 161,1 249,20 108,23 221,60 319,99 1055,417 1545,982 1962,1465 226,261 428,495 687,651 131,79 45,28 205,125 586,356 805,488 1426,632 1663,384 2188,643 2895,993 116,57 237,117 408,198 363,173 742,330 1102,480 76,31 149,62 335,140 196,83 340,148 479,211 254,115 494,223 841,351 897,331 1115,563 1467,938 176,188 389,414 754,711 259,211 475,444 666,697 188,250 350,519 504,807 60,112 113,229 140,328 19,72 25,140 14,202 -19,105 -76,181 -183,217 -32,11 -67,17 -104,17 -243,0 -292,-102 -366,-256 -17,-36 -37,-78 -68,-118l-20 -26c14,294 21,582 -18,942l-14 124 -117 43c-298,109 -472,-54 -573,-330 -99,-272 -111,-674 -118,-917 -1,-36 -2,-68 -3,-96 -68,-101 -209,-336 -186,-587 -58,-15 -118,-33 -179,-52 -89,-27 -182,-55 -276,-76 124,337 295,838 294,1149 -1,257 -96,424 -343,423 -196,-1 -382,-360 -564,-713 -123,-239 -244,-473 -263,-484 -523,-292 -702,-734 -882,-1178 -38,-95 -77,-190 -118,-280 -337,-41 -731,-74 -1133,-109 -417,-35 -842,-72 -1254,-122 -64,64 -149,130 -257,198 -1423,901 -3465,2149 -5840,3435 376,228 780,459 1188,691 1815,1037 3693,2111 4155,3538 10,30 19,63 29,99 10,36 18,69 25,100l3 12 1 13c13,136 -76,321 -249,547 -147,192 -364,432 -634,708 -12,12 -27,30 -42,48 -45,53 -92,108 -167,156 -480,307 -1021,718 -1595,1195 -579,481 -1190,1026 -1808,1599 -28,26 -43,39 -57,51 -30,26 -59,51 -80,75 -240,282 -403,563 -556,827 -125,215 -243,420 -393,611 -3,4 -6,8 -9,12 -42,53 -87,105 -135,157l0 0c-15,16 -33,35 -53,56l0 1c-17,17 -34,36 -53,54 -23,24 -47,48 -70,71 -4,5 -9,9 -14,14 -133,132 -269,258 -408,380 -3,3 -7,6 -10,9 -482,421 -995,789 -1479,1137 -448,322 -872,626 -1219,937 90,223 170,458 237,702 183,673 263,1420 160,2213 -82,635 -137,1306 -170,1999 -33,695 -43,1407 -37,2123 1,149 13,181 39,250 16,43 37,97 62,181 3,7 5,15 7,22 28,94 63,188 141,263 92,88 250,167 532,227 21,4 40,10 57,16l0 1c139,53 249,193 313,352 58,146 82,318 54,451 -5,23 -12,48 -21,72 -130,337 -357,534 -584,730 -102,88 -204,176 -288,272 -94,108 -145,237 -168,369 -10,58 -15,117 -16,175 4,65 7,130 11,195 7,57 17,112 28,163 102,453 170,916 203,1357 34,451 31,883 -9,1263 -29,148 4,207 -132,236 -427,91 -717,96 -1070,27 -146,-28 -118,-76 -169,-225 -152,-488 -337,-948 -520,-1404 -601,-1494 -1185,-2947 -596,-5160 -126,-736 -269,-1474 -413,-2213 -293,-1504 -585,-3008 -734,-4545l-33 -194c-64,-125 -128,-243 -193,-362 -236,-433 -477,-874 -584,-1389l0 0 -56 -218c-200,-783 -452,-1534 -703,-2284 -486,-1450 -973,-2900 -1086,-4543 -3044,1040 -6083,1685 -8740,1525 -69,0 -136,-36 -173,-101 -5,-9 -10,-18 -14,-26 -75,-147 -90,-318 -13,-496 67,-154 206,-309 440,-443 26,-15 52,-29 79,-42l0 0 8075 -4908c11,-228 46,-666 85,-1072 18,-189 38,-372 57,-525 1,-10 2,-19 4,-29 20,-161 39,-285 55,-342 120,-427 82,-798 45,-1152 -21,-199 -41,-394 -36,-600 11,-444 -148,-835 -299,-1205 -192,-470 -372,-911 -242,-1433 34,-135 66,-323 93,-530 26,-202 46,-423 55,-631 4,-94 1,-207 -3,-326 -9,-306 -20,-650 82,-903 117,-292 439,-737 844,-1197 -3,-14 -5,-29 -5,-44 0,-24 1,-16 2,-58 1,-34 1,-72 0,-99 -9,-191 -1,-362 6,-532 10,-230 21,-458 -15,-722 -82,-608 -303,-1268 -526,-1935 -216,-647 -434,-1299 -538,-1933 -84,-515 -117,-1002 -144,-1391 -6,-81 -11,-158 -18,-249 -23,-302 -44,-336 -101,-425 -36,-57 -83,-130 -144,-256 -198,-406 -228,-971 -251,-1397 -4,-79 -8,-153 -14,-237 -48,-636 -124,-1413 -203,-2109 -81,-715 -164,-1345 -222,-1648 -42,-222 -66,-344 -94,-434 -24,-76 -55,-131 -112,-221 -5,-7 -8,-14 -11,-20 -155,-105 -457,-359 -764,-645 -304,-282 -624,-601 -821,-836 -216,-257 -624,-1070 -746,-1618 -39,-174 -51,-329 -26,-448 41,-189 153,-301 359,-299 154,1 367,94 655,314 383,292 897,748 1331,1223 343,376 638,768 786,1109 85,197 230,370 356,521 109,130 206,246 262,370 75,164 145,351 213,554 68,204 129,413 187,624 65,242 187,607 332,1045 188,566 415,1251 613,1936 9,32 38,113 74,215 173,486 508,1425 284,1983 -78,194 139,1172 436,2191 301,1030 683,2077 930,2391 182,232 271,514 356,783l0 0c46,147 91,290 146,403l2 0c107,8 390,28 518,50 17,-139 32,-272 42,-384 14,-152 23,-308 23,-473zm397 154c-4,116 -12,234 -23,354 -17,187 -35,341 -54,496 -6,47 -11,116 -17,195 -11,143 -24,319 -47,476 -16,109 -117,185 -227,169 -109,-16 -185,-117 -169,-227 10,-69 18,-144 25,-219 -595,450 -1055,876 -1384,1252 -420,480 -618,861 -606,1092 8,145 39,589 120,909 32,128 57,223 60,224 34,8 1668,-1185 2946,-2194 672,-530 1222,-1002 1342,-1201 -22,-55 -39,-116 -44,-189 -4,-54 -5,-70 -7,-86 -4,-43 -8,-85 -10,-131 -51,-2 -103,-8 -155,-16 -179,-27 -366,-87 -472,-147 -199,-113 -399,-221 -566,-311 -367,-199 -575,-311 -713,-446zm146 -2687c66,88 47,213 -41,279 -88,66 -213,47 -279,-41 -54,-72 -82,-102 -91,-101 -2,0 -9,34 -26,85 -35,103 -48,242 -35,386 21,231 108,465 282,541 71,-48 169,-45 238,12 85,70 97,196 27,281 -28,34 -64,66 -106,89l0 1c-19,10 -38,18 -58,23 -3,88 -8,190 -13,296 164,553 209,578 860,930 145,78 318,172 572,316 67,38 200,78 336,99 103,16 198,20 247,2 15,-6 44,-44 82,-96 38,-51 81,-109 139,-172 86,-94 192,-276 257,-388 36,-62 62,-107 83,-131 94,-106 153,-201 213,-297 54,-87 108,-174 188,-275 167,-210 182,-388 198,-578 12,-136 24,-277 77,-446 33,-105 51,-169 69,-228 40,-137 74,-252 125,-384l6 -15 5 -10c111,-202 147,-553 123,-893 -24,-339 -103,-652 -222,-772 -63,-64 -97,-103 -124,-135 -46,-54 -69,-81 -262,-218 -394,-279 -763,-495 -1156,-574 -383,-78 -800,-26 -1305,224 -321,159 -586,509 -738,901 -136,350 -179,728 -89,1025 136,-2 279,76 418,263zm422 -2635c511,-217 955,-255 1372,-170 395,80 756,269 1127,517 7,-6 15,-12 24,-17 2,-15 2,-35 0,-61 -4,-55 -17,-121 -39,-191 -66,-210 -194,-434 -334,-501 -177,-86 -771,-186 -1298,-220 -373,-24 -691,-24 -739,27l0 0c-3,3 -6,7 -8,11 -45,70 -102,210 -132,352 -21,101 -33,190 -17,211 13,10 30,26 45,41zm-280 281l-1 -1 -1 1 0 1 4 2 -2 -3zm-1 -1l-2 -1 1 2 1 -1zm-2482 7277c314,-359 737,-758 1275,-1178 -35,-2 -65,-4 -88,-5l-37 -3 -2 0c-261,-21 -842,411 -1428,958 -704,657 -1387,1466 -1555,1886 -71,177 -62,477 -54,745 4,128 7,249 3,354 -10,217 -31,449 -58,664 -29,225 -64,430 -101,576 -99,398 57,780 223,1187 167,408 342,838 329,1364 -5,178 15,362 34,550 41,391 84,800 -57,1300 -3,11 -6,26 -10,44 685,-90 1360,-249 2062,-506 739,-271 1509,-652 2354,-1180 -54,-72 -102,-135 -123,-164 -225,-310 -118,-714 92,-1090 185,-332 449,-643 604,-820 153,-175 317,-340 490,-494 -150,-67 -252,-153 -321,-265 -108,-175 -118,-382 -93,-661 10,-111 30,-245 60,-388 29,-140 65,-284 105,-419 103,-342 221,-632 365,-912 143,-277 310,-542 513,-839 135,-197 264,-273 370,-334 -64,-65 -126,-142 -184,-222 -73,-101 -146,-216 -205,-314l-45 -68c-50,-76 -124,-187 -178,-283 -268,297 -736,698 -1272,1121 -1347,1063 -3202,2290 -3284,2270 -180,-42 -290,-252 -357,-516 -89,-350 -123,-830 -131,-985 -18,-330 213,-813 704,-1375zm-552 -520c481,-449 979,-827 1362,-985 -47,-114 -85,-235 -124,-359l0 -1c-74,-234 -151,-480 -289,-656 -278,-354 -686,-1456 -999,-2527 -318,-1089 -536,-2171 -424,-2450 168,-417 -134,-1262 -290,-1700 -33,-94 -60,-169 -81,-240 -194,-674 -421,-1356 -608,-1920 -151,-455 -277,-834 -340,-1067 -59,-216 -118,-420 -179,-602 -61,-184 -127,-357 -199,-515 -34,-74 -114,-170 -204,-278 -142,-170 -305,-365 -415,-619 -128,-295 -398,-650 -716,-998 -417,-457 -911,-895 -1278,-1175 -186,-141 -309,-212 -385,-229 -8,61 3,152 27,259 111,494 473,1221 663,1448 187,222 494,528 787,800 348,323 656,592 694,604 107,32 133,92 154,151 72,114 112,189 148,303 33,105 59,239 105,481 60,314 144,955 226,1677 80,704 157,1487 204,2123 5,61 9,150 14,246 21,390 48,907 211,1242 51,106 91,168 122,217 96,150 131,207 162,609 5,64 11,155 18,253 26,383 58,861 139,1354 99,603 312,1240 522,1871 229,685 455,1363 543,2008 41,299 29,545 18,792 -4,96 -9,193 -10,292 136,-141 277,-279 418,-410zm-1027 9372c-13,114 -26,241 -38,372 -32,328 -60,678 -75,914 196,109 424,146 679,127 15,-3 30,-4 44,-4 887,-87 2073,-828 3263,-1571 437,-273 874,-545 1307,-792 -66,-231 -270,-541 -471,-820 -880,552 -1683,950 -2455,1234 -767,281 -1503,449 -2254,541zm-210 1684c-9,6 -18,11 -27,16l-7508 4564c3680,-228 7904,-1714 11775,-3497 3635,-1675 6956,-3611 9229,-5018l-7788 1590c-86,48 -174,99 -262,150l2501 396c109,17 183,119 166,228 -17,109 -119,183 -228,166l-2866 -454c-30,-5 -57,-16 -80,-31 -204,125 -411,254 -617,383 -138,86 -276,172 -413,257l1268 1040c85,70 97,195 27,280 -70,85 -195,97 -280,27l-1375 -1128c-374,227 -744,440 -1102,620 0,17 -2,35 -7,53l-561 2127c-28,107 -137,170 -244,142 -107,-28 -170,-137 -142,-244l491 -1862c-369,157 -721,268 -1049,308l-2877 2923c-77,79 -204,80 -282,2 -79,-77 -80,-204 -2,-282l2608 -2650c-123,-21 -242,-56 -354,-108zm19049 -2926c-44,-101 2,-218 103,-263 101,-44 218,2 263,103 55,126 85,170 112,208 24,35 47,68 73,121 199,16 386,72 558,124 136,41 262,79 354,84 240,13 343,145 483,324 34,44 72,92 116,142 30,14 56,35 76,61 15,9 29,17 42,26 -68,-107 -138,-210 -213,-309 -172,-228 -366,-437 -599,-627 -388,-316 -609,-552 -793,-747 -312,-332 -506,-538 -1314,-836 -359,-132 -606,-244 -867,-362 -153,-69 -311,-140 -470,-207 -32,-13 -182,-76 -333,-139 -370,-154 -758,-315 -1121,-488 -126,-60 -272,-132 -412,-202 -683,-338 -1190,-588 -2807,-962 -681,-157 -916,-300 -1543,-680 -32,-19 72,44 -205,-123 -311,-188 -534,-445 -783,-732 -387,-447 -841,-972 -1807,-1354 -82,-32 -173,-63 -255,-80 -56,-12 -103,-18 -132,-13l-25 4 -20 -2c-27,-2 -49,-2 -73,-2 -112,0 -242,-1 -358,-65 -44,39 -95,69 -151,101 -72,41 -159,92 -244,216 -195,285 -354,537 -488,797 -132,257 -241,525 -337,843 -39,129 -72,262 -97,385 -25,122 -43,240 -52,343 -17,198 -16,336 34,417 46,75 153,130 350,177 71,-52 143,-102 216,-150 274,-180 566,-331 871,-449 -43,-22 -85,-43 -128,-64 -99,-49 -139,-168 -91,-267 49,-99 168,-139 267,-91 539,268 1065,564 1596,864 1090,615 2200,1240 3396,1602l36 11 32 26c216,175 458,323 719,448 248,119 514,218 793,302l617 -126 17 0c270,0 645,44 890,149 116,50 210,115 268,201 36,53 58,109 64,169 351,40 737,73 1116,105 379,32 750,64 1096,105 6,-4 12,-8 18,-11 98,-51 218,-14 270,84 7,14 14,28 21,42 6,10 11,20 16,31 63,129 116,258 168,387 154,379 307,757 705,980 125,70 273,357 424,649 74,143 116,287 148,384 -34,-312 -227,-822 -327,-1087l-39 -105c-45,-122 -67,-155 -93,-193 -37,-53 -79,-114 -149,-275zm670 1774c21,0 6,-3 -14,-7 5,5 9,7 14,7zm1127 -349c-5,-93 -10,-189 -14,-296 -59,-65 -107,-126 -151,-182 -15,-19 -29,-37 -43,-54 33,102 100,197 121,228 25,36 40,58 45,111 3,29 4,92 7,170 5,171 12,428 53,634 4,-211 -7,-406 -17,-611zm-13158 -5486c-4,1 -7,2 -11,3 -401,115 -781,294 -1131,524 -367,240 -701,535 -993,869 -144,165 -390,454 -556,751 -142,254 -227,510 -117,662 56,77 94,128 136,184 33,44 68,91 104,139 5,6 10,13 15,20 240,323 520,725 629,1066l7303 -1491c-72,-31 -143,-62 -213,-96 -277,-133 -534,-288 -767,-472 -1223,-376 -2341,-1006 -3440,-1626 -322,-181 -642,-362 -960,-534zm-15930 11994l-23 13c-154,88 -239,175 -273,254 -11,25 -16,49 -16,73 3871,194 8576,-1333 12896,-3278l8 -4c4,-2 7,-3 11,-5 4378,-1972 8355,-4369 10676,-5839 114,-72 185,-131 220,-177 4,-6 8,-12 12,-17l2 -4c-17,-14 -46,-30 -83,-46 -167,-72 -426,-107 -642,-114 -2254,1424 -5993,3673 -10139,5583 -4165,1919 -8742,3497 -12649,3562zm17244 -4795c-1355,725 -2811,1456 -4316,2139 38,79 90,154 155,228 44,13 83,41 110,82 10,16 18,33 24,50 818,715 2886,1171 4722,1575 139,31 89,20 0,0l0 1 268 59c9,2 28,4 46,6 68,7 135,13 209,59 9,5 17,11 25,17 313,214 612,353 887,449 279,97 535,150 757,191 108,20 180,124 160,232 -20,108 -124,180 -232,160 -237,-44 -512,-100 -817,-206 -267,-93 -554,-223 -857,-416 -549,539 -856,1304 -1169,2085 -187,468 -377,942 -624,1386 2,19 5,37 8,54 44,236 163,455 341,609 174,151 407,238 683,216 17,-1 34,-3 50,-5 120,-198 258,-404 439,-616 40,-47 82,-83 124,-119 21,-18 41,-35 46,-40 625,-579 1242,-1129 1824,-1613 587,-487 1140,-908 1636,-1225 23,-14 51,-47 78,-79 19,-22 38,-44 61,-68 258,-264 464,-491 601,-670 105,-136 164,-226 169,-261 -5,-23 -11,-45 -16,-64 -7,-24 -15,-52 -25,-82 -414,-1279 -2224,-2314 -3973,-3313 -475,-272 -946,-541 -1396,-820zm-4678 2302c-249,111 -499,221 -750,329 7,3 15,5 22,7 116,37 251,53 415,26 11,-3 22,-5 34,-6l198 -36 0 1c34,-12 68,-26 103,-42 38,-18 77,-38 116,-59 -55,-71 -101,-144 -138,-220zm-1226 531c-882,370 -1775,718 -2669,1033 96,1636 585,3094 1073,4552 256,764 513,1528 713,2312l56 218 2 9c94,461 322,878 545,1287 74,136 148,272 213,400l14 27 44 257 2 14c146,1515 438,3017 730,4519 135,693 270,1385 391,2084 122,-12 241,-27 360,-42 320,-40 639,-81 998,-66 1,-564 13,-1121 38,-1664 33,-700 89,-1381 173,-2030 96,-737 21,-1432 -149,-2059 -74,-270 -165,-528 -269,-771 -3,-6 -6,-13 -8,-19 -106,-245 -223,-475 -347,-689 -3,-5 -6,-10 -9,-16 -105,-180 -215,-348 -325,-503 -98,-137 -85,-273 -73,-410 5,-57 11,-114 0,-147 -281,-888 -405,-3047 -530,-5205 -57,-987 -114,-1974 -187,-2850 -151,4 -285,-19 -405,-58 -147,-47 -269,-115 -378,-185zm1180 196c72,861 130,1868 188,2875 123,2131 245,4263 512,5107 17,55 23,107 24,159 97,-126 198,-252 299,-378 378,-470 756,-940 842,-1369 -15,-221 -27,-459 -6,-712 11,-135 84,-212 154,-287 13,-14 26,-27 37,-42 212,-274 588,-226 958,-180 81,10 162,20 236,27 12,0 24,1 36,3 137,9 245,2 278,-49 46,-71 90,-144 132,-218 3,-6 6,-11 9,-16 248,-437 439,-914 628,-1386 302,-755 599,-1496 1118,-2073l-111 -24c-1843,-406 -3908,-861 -4861,-1649 -76,46 -156,90 -237,128 -77,36 -156,65 -235,85zm857 8633c16,24 32,49 48,74 62,-82 129,-166 196,-252 230,-290 478,-605 635,-960 -127,173 -265,345 -403,517 -168,209 -335,417 -477,621zm271 445c70,125 137,254 201,389 340,-292 737,-577 1155,-877l180 -129c9,-15 19,-29 32,-42 710,-715 574,-1517 448,-2265 -24,-144 -48,-285 -67,-426 -2,-9 -3,-18 -3,-26 -5,-40 -10,-81 -14,-121 -34,-4 -68,-8 -103,-13 -257,-32 -519,-66 -592,28 -18,23 -40,47 -62,70 -23,24 -46,47 -46,48 -20,233 -7,459 7,669 1,6 1,13 1,19l2 36c18,260 34,495 -7,711 -117,630 -502,1116 -847,1553 -102,129 -201,254 -286,376zm162 7812l-1 -82c-335,-15 -642,23 -949,62 -139,18 -278,35 -418,48 -34,136 -64,270 -89,400l139 -41c420,-125 826,-247 1318,-332 0,-17 -1,-36 -1,-55zm916 1285c-218,-62 -371,-142 -484,-231 -99,112 -196,231 -275,355 -110,172 -189,360 -198,565 -9,216 -30,421 -62,618 0,5 -1,10 -2,15l-2 9c-20,122 -43,240 -70,356 -71,310 -163,601 -263,886 -47,132 -112,249 -178,366 -96,172 -192,343 -186,519l40 99c170,422 340,847 486,1293l425 0c29,-466 37,-896 33,-1314 -4,-403 -21,-803 -43,-1216 -17,-148 -19,-310 10,-471 35,-197 114,-393 262,-563 103,-118 215,-214 327,-311 190,-164 380,-328 473,-570 1,-1 1,-5 3,-11 57,-269 -103,-338 -296,-394zm-2442 -420c-12,95 -21,189 -28,282 32,18 63,35 94,51 352,-292 783,-496 1235,-691 -347,75 -659,168 -979,264 -104,31 -210,63 -322,95zm-46 723c0,115 3,227 10,338 77,32 147,62 216,91 279,119 555,237 876,315 12,-104 22,-211 27,-320 -71,-24 -144,-48 -218,-71 -291,-94 -586,-190 -912,-353zm54 790c87,633 270,1210 483,1775 22,-42 46,-83 69,-125 57,-102 115,-204 149,-303 97,-273 184,-550 251,-842 12,-51 23,-102 33,-154 -363,-85 -664,-214 -970,-344l-16 -7zm4913 -12559c83,-114 158,-236 233,-363 -297,-21 -554,-138 -757,-314 -168,-146 -299,-332 -383,-539 -88,66 -196,96 -314,105l4 33c107,227 268,512 486,732 193,195 436,341 732,346zm-693 715c23,-20 46,-41 68,-61 -60,-14 -119,-29 -177,-45 -82,-23 -162,-47 -239,-73 -2,41 -6,82 -10,123 43,12 87,23 131,32 74,15 149,23 227,24zm1452 -5965l-111 -25 0 0 111 25 0 0zm-111 -25c-218,-48 -116,-26 0,0l0 0zm86 -390c-161,-35 -452,-99 0,1l0 -1zm-1805 5541c10,78 18,157 24,235 117,41 233,79 352,112 33,9 66,18 99,26 -156,-81 -295,-191 -418,-315 -19,-19 -38,-39 -56,-59zm-2503 11499c95,-149 205,-284 316,-409 -429,182 -846,362 -1184,598 174,68 343,123 510,177 53,17 105,34 159,52 47,-149 116,-288 199,-418z"></path></g></svg>