<svg xmlns:dc="http://purl.org/dc/elements/1.1/" xmlns:cc="http://creativecommons.org/ns#" xmlns:rdf="http://www.w3.org/1999/02/22-rdf-syntax-ns#" xmlns:svg="http://www.w3.org/2000/svg" xmlns="http://www.w3.org/2000/svg" xmlns:sodipodi="http://sodipodi.sourceforge.net/DTD/sodipodi-0.dtd" xmlns:inkscape="http://www.inkscape.org/namespaces/inkscape" version="1.1" x="0px" y="0px" viewBox="0 0 100 100"><g transform="translate(0,-952.36218)"><path style="text-indent:0;text-transform:none;direction:ltr;block-progression:tb;baseline-shift:baseline;color:#000000;enable-background:accumulate;" d="m 49.809193,961.37203 c -0.82536,0.0692 -1.61424,0.49996 -2.12042,1.15783 -4.13657,5.39649 -13.3171,8.75813 -21.89022,12.04765 -4.28656,1.64476 -8.38719,3.28845 -11.69349,5.63267 -2.784931,1.97456 -5.0754907,4.75726 -5.7376107,8.19866 -0.82922,-3.3e-4 -1.72078,0 -2.5258,0 -1.56759,0.0816 -2.91978,1.58747 -2.83814,3.16058 0.0816,1.57312 1.58239,2.9298 3.14997,2.8476 l 1.99569,0 0,31.57418 c -0.79156,0.9582 -1.33775,2.0992 -1.65268,3.3483 -2.1516,0.05 -3.51981,1.6821 -3.49298,3.1606 0.0816,1.5731 1.58239,2.9298 3.14997,2.8476 l 87.8103407,0 c 1.58153,0.022 3.03618,-1.4168 3.03618,-3.0041 0,-1.5872 -1.45465,-3.0265 -3.03618,-3.0041 -0.89285,-0.5681 -1.30202,-2.4924 -1.99568,-3.3483 l 0,-31.57418 1.99568,0 c 1.58153,0.0224 3.03618,-1.41683 3.03618,-3.00409 0,-1.58726 -1.45465,-3.02653 -3.03618,-3.00409 l -2.21396,0 c -0.66212,-3.4414 -2.95269,-6.2241 -5.73761,-8.19866 -3.30631,-2.34422 -7.40693,-3.98791 -11.6935,-5.63267 -8.57312,-3.28952 -17.75365,-6.65116 -21.89022,-12.04765 -0.60791,-0.79014 -1.62807,-1.24107 -2.61934,-1.15783 z m 0.24946,7.47893 c 5.99434,5.75286 14.79823,8.511 22.13968,11.32793 4.19512,1.60967 7.95253,3.22041 10.38383,4.94423 1.58943,1.12693 2.54776,2.13102 3.02471,3.28572 l -71.09644,0 c 0.47695,-1.1547 1.43528,-2.15879 3.02472,-3.28572 2.4313,-1.72382 6.1887,-3.33456 10.38382,-4.94423 7.34145,-2.81693 16.14535,-5.57507 22.13968,-11.32793 z m -29.93534,25.56606 5.98707,0 0,31.57418 c -0.79156,0.9582 -1.33775,2.0992 -1.65268,3.3483 l -2.68171,0 c -0.31494,-1.2491 -0.86117,-2.3901 -1.65268,-3.3483 z m 17.9612,0 5.98707,0 0,31.57418 c -0.79156,0.9582 -1.33775,2.0992 -1.65268,3.3483 l -2.68171,0 c -0.31494,-1.2491 -0.86117,-2.3901 -1.65268,-3.3483 z m 17.96121,0 5.98707,0 0,31.57418 c -0.79156,0.9582 -1.33775,2.0992 -1.65268,3.3483 l -2.68171,0 c -0.31494,-1.2491 -0.86117,-2.3901 -1.65268,-3.3483 z m 17.96121,0 5.98707,0 0,31.57418 c -0.79156,0.9582 -1.33775,2.0992 -1.65268,3.3483 l -2.68171,0 c -0.31494,-1.2491 -0.86117,-2.3901 -1.65268,-3.3483 z M 5.8416523,1037.3504 c -1.56759,0.082 -2.91978,1.5875 -2.83814,3.1606 0.0816,1.5731 1.58239,2.9298 3.14997,2.8476 l 87.8103407,0 c 1.58153,0.022 3.03618,-1.4168 3.03618,-3.0041 0,-1.5872 -1.45465,-3.0265 -3.03618,-3.0041 -29.36715,0 -58.77715,0 -88.1221707,0 z" fill="#000000" fill-opacity="1" stroke="none" marker="none" visibility="visible" display="inline" overflow="visible"></path></g></svg>