<svg xmlns="http://www.w3.org/2000/svg" xmlns:xlink="http://www.w3.org/1999/xlink" version="1.1" x="0px" y="0px" viewBox="0 0 100 100" enable-background="new 0 0 100 100" xml:space="preserve"><g><path fill-rule="evenodd" clip-rule="evenodd" fill="#000000" d="M88.228,45.954c-0.758-1.049-1.059-2.583-0.562-4.001   c-0.272-10.331,0.389-20.333-1.469-30.798c-9.324,0.426-21.059,0.591-31.648,0.479c-12.816-0.135-26.532-0.379-37.623,2.992   c-3.097,0.94-1.904,10.075-1.959,14.062c-0.087,6.295,0.616,14.742-0.868,19.892c-2.562,6.591-5.494,17.769-6.961,25.664   c-0.698,3.754,2.896,4.115,5.006,5.188c-0.598,1.031-0.579,2.641-0.777,3.854c3.698,2.156,9.943,2.807,14.741,2.699   c19.897-0.439,41.626,4.295,60.674,2.424c0.893-4.09,0.957-8.5,0.145-12.531C91.885,69.125,87.463,55.258,88.228,45.954z    M85.479,13.337c0.729,9.722,1.11,17.688,0.426,28.141c-1.136,0.022-2.109,0.201-3,0.464c0.094-3.811-2.293-6.254-3.314-9.305   c-0.4,3.305,2.358,5.911,2.067,9.658c-3.909-3.859-6.968-9.326-9.497-14.891c0.272,5.085,3.87,8.734,5.957,12.773   c-6.591-4.096-12.721-11.188-10.498-20.389c-5.391,10.097,4.779,17.983,10.947,22.47c-13.262-0.077-17.844-18.63-11.215-29.064   C73.659,13.776,79.229,12.91,85.479,13.337z M85.947,44.317c-1.916,0.509-3.97,1.352-6.249,1.014   c-0.115-0.249-0.095-0.638-0.099-1.001c1.977-0.796,3.985-0.899,6.327-1.432C85.954,43.25,86.234,43.832,85.947,44.317z    M17.111,15.792c1.583-0.398,3.278-0.815,4.917-0.742c0.361,6.277-0.938,14.259-4.23,18.522c0.906,1.631,1.632-0.403,2.151-1.369   c2.265-4.217,4.397-12.196,3.58-17.344c6.11-0.01,12.066-1.272,18.853-1.539c4.978,15.711-3.198,31.965-19.038,33.447   c6.394-3.616,12.464-8.472,14.368-16.421c-3.488,6.105-8.488,10.996-13.804,15.076c3.458-5.396,8.625-12.565,8.385-19.922   c-3.618,7.411-5.188,15.272-11.639,20.139c-0.217,0.188,0.072,0.555-0.074,0.669c-0.251,0.004-0.501,0.008-0.751,0.012   c1.09-1.562,2.89-3.479,3.673-5.652c1.774-4.923,3.421-12.754,1.673-16.396c-1.188,7.462-2.587,15.842-5.849,21.972   c-0.804-0.132-1.728-0.141-2.592-0.212C16.611,35.739,16.667,25.841,17.111,15.792z M21.941,47.959   c-0.178,0.458-0.191,1.076-0.564,1.345c-1.733-0.383-4.634,0.009-5.869-1.415C16.556,46.353,20.078,47.879,21.941,47.959z    M11.784,77.764c1.065-7.594,3.986-15.16,3.486-23.523c-2.835,6.971-3.316,16.205-5.158,23.383   c-0.689-0.252-1.252-0.633-1.688-1.145c1.607-8.965,3.768-18.764,6.267-27.408c8.498,0.025,10.303,10.367,13.619,16.833   c1.26,2.457,3.881,6.697-0.562,7.023c-1.996-5.654-3.146-11.973-5.525-17.373c-0.551,0.088-0.825-0.037-1.167,0.186   c1.592,6.172,4.577,12.23,4.962,18.801c-1.474,1.277-3.065,1.424-5.74,1.508c-1.081-6.223,0.268-14.34-0.561-20.607   c-0.008-0.033-0.251-1.512-0.857-1.338c-0.91,0.262-0.429,8.867-0.514,10.197c-0.365,5.709,3.574,15.316-4.538,14.686   C13.063,78.65,12.662,77.963,11.784,77.764z M13.112,82.672c0.173-0.787,0.382-1.895,0.544-2.682   c2.212-0.086,5.101-0.404,6.483-2.102c0.018-0.65-0.039-1.084,0.061-1.504c0.283,0.047,0.376,0.289,0.673,0.322   c-1.324,2.363-2.421,4.945-3.985,7.076C15.56,83.484,13.856,83.572,13.112,82.672z M18.311,84.014   c1.482-2.127,2.858-4.359,3.565-7.238c0.177,0.072,0.499-0.004,0.423,0.328c2.498-0.201,5.697-1.025,5.877-3.514   c4.459-0.18,3.87-3.973,2.234-6.883c1.306,0.102,2.962,0.338,3.928,0.107c-2.797,5.787-5.117,11.828-8.086,17.578   C23.814,84.303,20.992,84.541,18.311,84.014z M28.17,84.281c2.822-5.773,5.23-11.695,8.007-17.326   c1.153-0.225,2.312-0.168,3.755-0.225c-1.381,5.775-2.204,11.492-3.663,17.346C33.84,84.123,30.861,84.152,28.17,84.281z    M50.738,85.443c-4.176-0.008-9.238-1.088-13.382-1.301c2.05-5.172,2.554-11.531,3.915-17.266c3.219,0.109,7.389,0.234,10.863,0.42   C51.531,73.504,51.076,79.133,50.738,85.443z M52.243,85.588c0.243-6.068,1.189-12.029,1.06-18.309   c3.77-0.049,6.61,0.244,10.111,0.35c1.184,6.539,2.104,12.75,3.715,19.152C62.369,86.377,57.076,85.719,52.243,85.588z    M68.634,86.844c-1.57-6.408-2.702-12.854-4.049-19.15c0.959-0.316,2.317,0.234,3.171-0.215c-0.155,1.312,0.787,2.598,2.296,2.723   c-0.968,0.984-3.962,3.225-0.941,4.023c-1.818,5.055,5.374,4.693,9.004,4.373c0.968,2.512,1.952,6.361,2.641,8.896   C77.213,87.453,72.768,87.414,68.634,86.844z M84.672,86.934c-0.316,0.543-1.307,0.434-2.165,0.451   c-0.6-3.244-2.133-6.096-2.896-9.229c2.456-0.373,3.996-0.709,5.991-1.426C85.848,80.379,85.111,83.518,84.672,86.934z    M69.816,76.719c0.441-1.668,0.748-3.16-0.728-3.916c1.007-0.807,2.344-1.291,2.63-2.795c-3.934-0.957-1.221-4.662,0.221-7.521   c2.451-4.859,5.089-10.805,6.693-15.803c-0.031-0.109-0.149-0.129-0.17-0.248c-3.537,6.086-6.285,13.651-9.889,19.946   C57,65.162,41.053,64.443,29.558,65.551c-1.688-5.557-8.706-12.863-4.95-17.966c16.264-1.249,25.8-19.577,18.777-34.195   c7.308-0.661,14.74,0.064,21.963-0.166c-6.286,12.194-0.33,29.137,12.905,30.458c-0.05,1.007,0.31,1.813,0.543,2.748   c0.291,0.237,0.732,0.32,1.176,0.4c-2.135,6.742-4.939,13.125-6.042,20.22c2.292-6.76,4.977-13.568,6.625-20.313   c1.209-0.053,2.545,0.094,3.503-0.388c0.267,2.498-0.059,4.806,0.528,7.343c1.414-1.496,0.102-5.431,0.387-7.524   c0.397-0.054,0.637-0.261,1.082-0.267c0.712,8.941,1.521,17.73,1.169,27.546C84.178,77.287,75.083,78.688,69.816,76.719z"></path><path fill-rule="evenodd" clip-rule="evenodd" fill="#000000" d="M82.181,16.227c-0.148,3.243-0.258,6.888,0.817,9.76   C83.996,22.843,83.131,19.175,82.181,16.227z"></path><path fill-rule="evenodd" clip-rule="evenodd" fill="#000000" d="M80.485,53.17c-0.225,6.15-1.81,14.197-2.442,20.75   c3.539-7.029,2.769-16.854,4.785-25.963C80.997,48.035,81.649,51.9,80.485,53.17z"></path></g></svg>