<svg xmlns="http://www.w3.org/2000/svg" xmlns:xlink="http://www.w3.org/1999/xlink" version="1.1" x="0px" y="0px" viewBox="0 0 100 100" style="enable-background:new 0 0 100 100;" xml:space="preserve"><path d="M38.803,65.066c1.437,10.203,5.393,18.498,11.764,24.654C50.755,89.901,51.005,90,51.262,90  c0.064,0,0.128-0.006,0.192-0.019c28.425-5.562,38.54-43.035,38.639-43.413c0.137-0.522-0.166-1.059-0.684-1.212l-28.833-8.526  c1.742-13.745-0.89-25.836-0.938-26.051c-0.119-0.527-0.631-0.862-1.165-0.762L10.936,19.18c-0.53,0.102-0.883,0.607-0.798,1.14  C10.195,20.679,15.763,53.724,38.803,65.066z M87.888,46.993c-1.726,5.7-11.927,35.763-36.305,40.921  c-5.56-5.538-9.097-12.897-10.579-21.859c1.095,0.451,2.212,0.871,3.381,1.221c0.094,0.028,0.19,0.042,0.286,0.042  c0.223,0,0.443-0.075,0.622-0.217c9.31-7.393,13.403-18.14,14.994-28.269L87.888,46.993z M57.875,12.171  c1.089,5.855,5.857,37.242-13.418,53.035c-23.743-7.496-30.999-38.409-32.167-44.25L57.875,12.171z"></path><path d="M31.076,46.241c-0.486,0.262-0.668,0.868-0.406,1.354c1.946,3.615,5.598,5.782,9.482,5.782c0.658,0,1.324-0.062,1.988-0.19  c4.585-0.883,8.03-4.683,8.571-9.455c0.062-0.549-0.332-1.044-0.881-1.106c-0.543-0.065-1.043,0.332-1.106,0.881  c-0.442,3.898-3.24,6.999-6.962,7.716c-3.726,0.716-7.473-1.122-9.332-4.576C32.168,46.161,31.563,45.976,31.076,46.241z"></path><path d="M31.3,32.573c0.104,0.542,0.624,0.893,1.171,0.792c0.542-0.104,0.897-0.629,0.792-1.171  c-0.543-2.816-3.216-4.675-5.955-4.149c-1.334,0.257-2.483,1.034-3.236,2.187c-0.746,1.143-1.012,2.52-0.75,3.878  c0.092,0.479,0.511,0.811,0.981,0.811c0.062,0,0.126-0.006,0.19-0.018c0.542-0.104,0.897-0.629,0.792-1.171  c-0.163-0.846,0-1.7,0.461-2.406c0.454-0.695,1.143-1.163,1.939-1.316C29.343,29.686,30.965,30.839,31.3,32.573z"></path><path d="M43.562,31.209c0.062,0,0.126-0.006,0.19-0.018c0.542-0.104,0.897-0.629,0.793-1.171c-0.163-0.846,0.001-1.701,0.461-2.407  c0.454-0.695,1.143-1.163,1.939-1.316c0.796-0.154,1.609,0.024,2.29,0.501c0.69,0.484,1.16,1.217,1.323,2.062  c0.104,0.542,0.63,0.896,1.171,0.793c0.542-0.104,0.897-0.629,0.793-1.171c-0.262-1.358-1.021-2.538-2.138-3.321  c-1.127-0.791-2.484-1.084-3.817-0.828c-1.334,0.257-2.483,1.034-3.236,2.187c-0.746,1.143-1.012,2.52-0.75,3.877  C42.673,30.876,43.092,31.209,43.562,31.209z"></path><path d="M46.153,70.284c-0.308,0.458-0.185,1.08,0.273,1.388c0.458,0.309,1.081,0.185,1.388-0.273  c2.186-3.258,6.098-4.724,9.731-3.65c3.635,1.075,6.119,4.433,6.182,8.355c0.009,0.546,0.455,0.984,1,0.984c0.005,0,0.011,0,0.017,0  c0.552-0.009,0.993-0.464,0.984-1.016c-0.077-4.801-3.137-8.917-7.614-10.241C53.637,64.507,48.829,66.295,46.153,70.284z"></path><path d="M66.6,57.387c0.531,0.156,1.086-0.146,1.243-0.675c0.501-1.692,2.228-2.678,3.844-2.202  c1.619,0.479,2.529,2.246,2.029,3.938c-0.157,0.53,0.146,1.086,0.675,1.243c0.095,0.028,0.19,0.042,0.284,0.042  c0.432,0,0.83-0.282,0.958-0.717c0.813-2.75-0.703-5.632-3.38-6.423c-2.678-0.792-5.516,0.802-6.329,3.552  C65.768,56.674,66.07,57.23,66.6,57.387z"></path></svg>