<svg xmlns="http://www.w3.org/2000/svg" xmlns:xlink="http://www.w3.org/1999/xlink" version="1.1" x="0px" y="0px" viewBox="0 0 100 100" enable-background="new 0 0 100 100" xml:space="preserve"><g><path d="M86.454,36.532c-0.812-0.817-1.676-1.225-2.611-1.229l-8.428-0.001l0.83-0.965c0,0,4.287-5.894,2.561-10.113   c-1.443-3.536-5.947-5.18-9.592-5.234H49.549c-1.25,0-2.317,0.481-3.227,1.48L32.45,36.45c-0.022,0.018-1.46,1.498-1.477,3.092   c-0.015,1.159,0.391,2.272,1.219,3.099c0.827,0.83,1.939,1.202,3.103,1.202c1.236,0,2.194-0.579,3.11-1.567l12.871-14.999   l8.349,0.13L31.14,60.358H12.052c-1.554,0-2.872,0.485-3.938,1.473c-1.066,0.966-1.607,2.234-1.607,3.788   c0,1.469,0.541,2.711,1.619,3.731c1.067,1.023,2.351,1.525,3.837,1.525h22.423c0.896,0,1.726-0.077,2.469-0.237   c1.901-0.332,3.225-0.906,3.966-1.733L51.841,56.64l12.882,12.426L59.524,92.29c-0.166,0.507-0.249,0.909-0.249,1.25   c0,1.479,0.535,2.765,1.605,3.848c1.081,1.071,2.357,1.614,3.842,1.614c2.808,0,4.545-1.454,5.205-4.355l6.317-28.226   c0.74-2.978,0.422-5.177-0.971-6.585L64.004,48.565l3.972-4.616l15.778-0.007c1.05-0.109,1.945-0.536,2.658-1.25   c0.882-0.876,1.32-1.915,1.287-3.118C87.694,38.371,87.27,37.36,86.454,36.532z"></path><circle cx="80.331" cy="10.164" r="8.915"></circle></g></svg>