<svg xmlns="http://www.w3.org/2000/svg" xmlns:xlink="http://www.w3.org/1999/xlink" version="1.1" x="0px" y="0px" viewBox="0 0 100 100" style="enable-background:new 0 0 100 100;" xml:space="preserve"><path d="M46.5,79.5c9.6,0,18.4-4.8,23.7-12.7C71.5,82,72.9,82,74,82c1.2,0,2.7,0,4-18.1c0.6-8.5,0.9-17.1,1-19.9  c0,0,0,0,0,0c0,0,0,0,0,0c0-0.2,0-0.4,0-0.5c0-3.6,0-8.5-5-8.5s-5,4.9-5,8.5c0,0.1,0,0.3,0,0.5c0,0,0,0,0,0c0,0,0,0,0,0  c0,0.3,0,0.6,0,0.9c-0.7-0.1-1.5-0.1-2.2-0.2c-3.4-0.2-7.2-0.5-10.1-3.4c-2.9-2.9-3.2-6.7-3.5-10.1c-0.4-4.3-0.7-8.7-6.7-8.7  C30.8,22.5,18,35.3,18,51S30.8,79.5,46.5,79.5z M74,79.4c-1.4-4-2.5-20.7-2.9-30.4h5.7C76.5,58.7,75.4,75.4,74,79.4z M76.9,47h-5.9  c0-0.7,0-1.4,0-2h6C77,45.6,77,46.3,76.9,47z M74,37c2.3,0,3,1.3,3,6h-6C71,38.3,71.7,37,74,37z M46.5,24.5c4,0,4.3,2.2,4.7,6.8  c0.3,3.6,0.7,8,4.1,11.4c3.4,3.4,7.8,3.8,11.3,4c0.9,0.1,1.7,0.1,2.4,0.2c0.1,3.9,0.4,10.2,0.9,16.4c-4.6,8.7-13.6,14.1-23.4,14.1  C31.9,77.5,20,65.6,20,51S31.9,24.5,46.5,24.5z"></path><path d="M38,41c2.8,0,5-2.2,5-5s-2.2-5-5-5s-5,2.2-5,5S35.2,41,38,41z M38,33c1.7,0,3,1.3,3,3s-1.3,3-3,3  s-3-1.3-3-3S36.3,33,38,33z"></path><path d="M35,47c0-2.8-2.2-5-5-5s-5,2.2-5,5s2.2,5,5,5S35,49.8,35,47z M27,47c0-1.7,1.3-3,3-3s3,1.3,3,3s-1.3,3-3,3  S27,48.7,27,47z"></path><path d="M33,56c-2.8,0-5,2.2-5,5s2.2,5,5,5s5-2.2,5-5S35.8,56,33,56z M33,64c-1.7,0-3-1.3-3-3s1.3-3,3-3s3,1.3,3,3  S34.7,64,33,64z"></path><path d="M39,70c0,2.8,2.2,5,5,5s5-2.2,5-5s-2.2-5-5-5S39,67.2,39,70z M44,67c1.7,0,3,1.3,3,3s-1.3,3-3,3s-3-1.3-3-3  S42.3,67,44,67z"></path><path d="M71.5,23.3c-1.1,1-2.5,2.3-2.5,4.7c0,2.8,2.2,5,5,5s5-2.2,5-5c0-2.3,0-6.5-4.4-9.8c-0.3-0.3-0.8-0.3-1.1,0  s-0.5,0.7-0.4,1.1C73.5,21.4,72.7,22.2,71.5,23.3z M72.8,24.8c0.9-0.8,1.9-1.8,2.3-3.4C77,23.7,77,26.3,77,28c0,1.7-1.3,3-3,3  s-3-1.3-3-3C71,26.4,71.8,25.7,72.8,24.8z"></path></svg>