<svg xmlns="http://www.w3.org/2000/svg" xmlns:xlink="http://www.w3.org/1999/xlink" xmlns:sketch="http://www.bohemiancoding.com/sketch/ns" viewBox="0 0 206 412" version="1.1" x="0px" y="0px"><title>Artboard 2</title><desc>Created with Sketch.</desc><g stroke="none" stroke-width="1" fill="none" fill-rule="evenodd" sketch:type="MSPage"><g sketch:type="MSArtboardGroup" fill="#000000"><path d="M124.236483,174.655213 L120.979778,173.252476 L120.979778,263.465498 L120.977778,359.337922 C120.977778,366.610558 115.085827,372.506194 107.814167,372.506194 C100.544105,372.506194 94.6505549,366.602869 94.6505549,359.337922 L94.6505549,263.465498 L92.0178326,263.465498 L92.0178326,359.337922 C92.0178326,366.610558 86.1258814,372.506194 78.854221,372.506194 C71.584159,372.506194 65.6906094,366.602869 65.6906094,359.337922 L65.6906094,254.361723 L65.6906094,130.2199 L57.0609636,48.1143051 C56.4278594,42.0907205 60.797689,36.6944098 66.8242103,36.0609969 C72.8494068,35.4277232 78.2470239,39.7974141 78.8801303,45.8210183 L87.7087217,129.819455 C106.760564,132.003219 132.079172,135.254062 137.480999,137.649519 C137.519108,137.666418 137.557009,137.684008 137.594704,137.702282 C142.504856,138.792663 146.176483,143.174197 146.176483,148.410398 L146.176483,234.289061 C146.176483,240.34701 141.266379,245.257948 135.206483,245.257948 C129.147919,245.257948 124.236483,240.345137 124.236483,234.289061 L124.236483,174.655213 Z M112.211768,123.275147 C125.540215,123.275147 136.345056,112.470306 136.345056,99.1418591 C136.345056,85.8134122 125.540215,75.0085712 112.211768,75.0085712 C98.883321,75.0085712 88.0784799,85.8134122 88.0784799,99.1418591 C88.0784799,112.470306 98.883321,123.275147 112.211768,123.275147 Z" sketch:type="MSShapeGroup"></path></g></g></svg>