<svg xmlns="http://www.w3.org/2000/svg" xmlns:xlink="http://www.w3.org/1999/xlink" version="1.1" x="0px" y="0px" viewBox="0 0 324.416 478.712" enable-background="new 0 0 324.416 478.712" xml:space="preserve"><g><path d="M162.266,22.293c-18.706,0-33.87,15.164-33.87,33.871c0,18.706,15.164,33.87,33.87,33.87s33.87-15.164,33.87-33.87   C196.136,37.457,180.972,22.293,162.266,22.293L162.266,22.293z M119.892,56.164c0-23.403,18.971-42.375,42.374-42.375   c23.402,0,42.374,18.972,42.374,42.375s-18.972,42.374-42.374,42.374C138.863,98.538,119.892,79.567,119.892,56.164L119.892,56.164   z"></path><path d="M108.956,130.102c0.829,1.732,1.311,3.714,1.528,5.46l8.964,105.519l0.015,3l-0.69,2.742l-56.994,198   c-2.986,10.489,3.088,21.522,13.6,24.623c10.507,2.991,21.558-3.103,24.637-13.647l43.057-148.418   c1.889-6.615,6.364-12.188,12.424-15.442c6.047-3.315,13.182-3.906,19.738-1.847l59.826,18.819   c4.608,1.33,8.382,4.569,10.418,8.895c1.988,4.228,2.183,9.119,0.405,13.51l-19.264,48.457   c-4.151,10.226,0.761,21.79,10.937,25.846c10.216,4.071,21.8-0.913,25.871-11.13l36.328-90.92   c1.521-3.764,1.431-7.875-0.146-11.354c-1.777-3.635-4.912-6.339-8.595-7.526l-74.089-23.178c-3.805-1.068-7.088-3.46-9.243-6.818   c-2.112-3.169-3.039-7.009-2.792-10.715l9.152-108.412c0.219-1.752,0.704-3.745,1.539-5.483c0.734-1.625,1.885-3.355,3.002-4.695   l93.542-95.154c5.032-5.033,4.959-13.101,0.025-17.97c-4.869-4.934-12.911-5.032-17.943,0l-87.887,87.888   c-11.646,11.792-27.537,18.404-44.158,18.404c-16.496,0-32.289-6.611-43.915-18.36L30.105,12.244   c-4.869-4.934-12.895-5.015-17.926,0.017c-4.878,4.878-4.933,12.944,0.042,17.985l93.72,95.135   C107.063,126.727,108.241,128.49,108.956,130.102L108.956,130.102z M102.028,136.447c-0.131-1.051-0.4-1.991-0.794-2.779   c-0.394-0.919-0.931-1.791-1.588-2.579L6.166,36.217c-8.221-8.33-8.221-21.748,0-29.97c8.33-8.329,21.748-8.329,29.969,0   l88.123,87.925c10.04,10.166,23.676,15.878,37.909,15.878c14.36,0,28.067-5.712,38.107-15.878l87.925-87.925   c8.33-8.329,21.748-8.329,29.97,0c8.33,8.222,8.33,21.64,0,29.97l-93.283,94.872c-0.657,0.788-1.194,1.66-1.588,2.579   c-0.395,0.788-0.663,1.729-0.794,2.779l-9.13,108.168c-0.128,1.926,0.361,3.818,1.389,5.359c1.028,1.669,2.639,2.859,4.565,3.374   l74.229,23.222c5.95,1.898,10.91,6.211,13.695,11.908c2.657,5.696,2.802,12.31,0.396,18.26l-36.321,90.901   c-5.81,14.578-22.338,21.688-36.917,15.878c-14.577-5.811-21.598-22.338-15.679-36.916l19.252-48.429   c0.886-2.151,0.814-4.596-0.198-6.747c-1.013-2.152-2.882-3.734-5.16-4.367l-59.939-18.855c-4.44-1.395-9.167-0.965-13.099,1.191   c-4.059,2.156-7.068,5.881-8.336,10.32l-43.069,148.459c-4.385,15.018-20.113,23.726-35.13,19.45   c-15.018-4.384-23.726-20.113-19.451-35.13l56.962-197.879l0.397-1.588v-1.587L102.028,136.447L102.028,136.447z"></path></g></svg>