<svg xmlns="http://www.w3.org/2000/svg" xmlns:xlink="http://www.w3.org/1999/xlink" version="1.1" x="0px" y="0px" viewBox="0 0 431.209 385.628" enable-background="new 0 0 431.209 385.628" xml:space="preserve"><g><path d="M388.541,144.181c-18.704,0.164-33.734,15.458-33.571,34.163c0.163,18.704,15.458,33.734,34.162,33.571   c18.705-0.163,33.735-15.458,33.573-34.162C422.541,159.048,407.246,144.018,388.541,144.181L388.541,144.181z M346.466,178.418   c-0.204-23.4,18.6-42.536,42.001-42.74c23.401-0.204,42.537,18.6,42.74,42.001c0.205,23.4-18.6,42.535-42.001,42.74   C365.806,220.623,346.671,201.818,346.466,178.418L346.466,178.418z"></path><path d="M11.307,367.481c5.577,9.34,17.793,12.467,27.322,6.841l175.18-104.67c1.29-0.659,2.908-1.386,4.349-1.897   c1.718-0.742,3.531-1.267,5.417-1.519l93.311-16.354L347.81,367.1c1.863,6.928,8.875,10.957,15.514,9.251   c6.873-1.849,10.99-8.923,9.239-15.752l-43.475-164.792c-2.462-8.129-3.223-16.671-2.243-25.119   c0.988-8.501,3.729-16.668,8.067-24.008l62.745-107.478c3.488-6.064,1.353-13.836-4.711-17.325   c-5.917-3.505-13.71-1.552-17.3,4.575l-68.179,114.693c-0.817,1.25-2.142,2.85-3.199,3.924c-1.552,1.317-3.646,2.621-5.67,3.261   l-86.788,30.899c-4.624,1.515-9.816,1.434-14.37-0.525c-4.703-1.967-8.47-5.677-10.519-10.346L122.72,20.472   c-4.392-10.033-16.077-14.648-26.063-10.371C86.55,14.494,81.918,26.25,86.311,36.357l80.765,186.14   c2.848,6.305,3.189,13.421,1.058,20.007c-2.111,6.521-6.489,12.113-12.349,15.662L18.143,340.158   C8.802,345.736,5.679,357.952,11.307,367.481L11.307,367.481z M42.991,381.622c-13.521,8.011-30.977,3.632-38.985-9.781   c-8.01-13.522-3.63-30.977,9.781-38.986l137.62-81.979c4.074-2.468,7.141-6.371,8.637-10.991c1.496-4.621,1.241-9.553-0.717-13.887   L78.51,39.744C72.247,25.33,78.853,8.566,93.267,2.302c14.306-6.153,30.98,0.455,37.243,14.759l64.206,147.896   c1.171,2.669,3.318,4.778,6.006,5.902c2.561,1.125,5.541,1.241,8.339,0.324l86.858-30.925c0.916-0.271,1.785-0.749,2.567-1.413   c0.651-0.662,1.249-1.406,1.767-2.199L368.322,22.13c5.94-10.137,18.885-13.538,28.911-7.596   c10.135,5.831,13.625,18.774,7.795,28.909l-62.771,107.524c-3.743,6.32-6.111,13.36-6.965,20.702   c-0.852,7.342-0.18,14.761,1.978,21.815l43.516,164.946c2.948,11.374-3.88,23.074-15.253,26.133   c-11.264,2.948-22.876-3.881-25.935-15.254l-28.941-109.701l-85.808,15.039c-1.187,0.143-2.38,0.484-3.562,1.024   c-1.186,0.406-2.311,0.881-3.361,1.418L42.991,381.622L42.991,381.622z"></path></g></svg>