<svg xmlns="http://www.w3.org/2000/svg" xmlns:xlink="http://www.w3.org/1999/xlink" version="1.1" x="0px" y="0px" viewBox="0 0 100 100" enable-background="new 0 0 100 100" xml:space="preserve"><path d="M96.064,25.069c-0.186-0.237-0.357-0.446-0.517-0.641c-0.53-0.645-0.881-1.071-1.109-1.788  c-0.44-1.378-1.598-2.227-2.495-1.824c-0.695,0.314-2.143,0.967-2.086,2.269l0.008,0.152c0.042,0.89,0.129,2.742-0.753,3.299  c-0.504,0.318-1.721,0.627-2.795,0.9c-1.639,0.417-2.669,0.7-3.147,1.13c-0.305,0.273-0.496,0.609-0.699,0.966  c-0.434,0.759-0.925,1.62-2.744,2.383c-0.957,0.401-1.191,1.157-1.38,1.763c-0.115,0.372-0.215,0.693-0.459,0.9  c-1.337,1.136-3.084,2.44-3.978,2.691c-0.134,0.038-0.22,0.045-0.329,0.049c-0.036-0.056-0.094-0.443,0.296-1.323  c0.668-1.509-0.051-3.154-0.624-3.614c-0.341-0.273-0.833-0.117-1.092,0.036c-0.004-0.013-0.009-0.027-0.014-0.043l-0.116-0.394  c-0.341-1.174-0.808-2.783-2.032-2.783c-0.099,0-0.199,0.011-0.299,0.034c-0.731,0.166-0.917,0.68-1.039,1.021  c-0.109,0.303-0.15,0.416-0.476,0.49c-1.297,0.292-1.819,1.583-1.554,3.838c0.412,3.516-0.274,3.839-0.281,3.841  c-0.398,0.128-0.694-0.313-0.856-1.122c-0.249-1.245-0.342-3.646,0.249-4.848c0.46-0.934,0.26-1.458,0.036-1.875  c-0.094-0.174-0.094-0.174-0.055-0.252c0.205-0.423,2.189-1.094,2.842-1.094c0.493,0,0.795-0.215,0.962-0.396  c0.262-0.285,0.386-0.691,0.349-1.146c-0.064-0.775-1.005-0.781-2.093-0.788c-0.478-0.003-1.018-0.006-1.516-0.063  c-1.281-0.146-1.846-0.607-2.265-1.084c-0.171-0.194-0.409-0.3-0.672-0.3c-0.597,0-1.216,0.518-1.964,1.194l-0.525,0.47  c-0.236,0.216-0.53,0.484-0.685,0.484c-0.069,0-0.163-0.085-0.213-0.137c-0.238-0.246-0.497-0.374-0.725-0.448  c0.277-0.28,0.679-0.562,1.067-0.836c0.754-0.53,1.404-0.987,1.443-1.607c0.013-0.208-0.057-0.404-0.195-0.553  c-0.285-0.303-0.774-0.329-1.293-0.329l-0.619,0.005c-0.219,0-0.801,0-1.046-0.135c-0.398-0.219-0.977-0.26-1.646-0.307  c-1.011-0.071-2.155-0.152-2.709-0.823c-0.349-0.422-0.631-0.721-1.088-0.721c-0.188,0-0.36,0.051-0.578,0.116  c-0.569,0.167-1.643,0.48-4.354,0.3c-2.611-0.171-3.712-0.178-4.516-0.183c-0.868-0.005-1.441-0.008-3.296-0.211  c-3.695-0.404-13.671-1.987-18.074-3.031c-0.617-0.146-6.069-1.442-7.332-1.863c-0.601-0.2-0.933-0.295-1.197-0.295  c-0.486,0-0.694,0.326-0.805,0.501c-0.044,0.07-0.083,0.139-0.119,0.206c-0.033,0.061-0.078,0.143-0.185,0.168  c-0.037,0-0.077-0.003-0.122-0.008c-0.15-0.018-0.236-0.082-0.401-0.212c-0.224-0.177-0.529-0.419-1.06-0.419  c-0.011,0-0.104,0.003-0.114,0.003c-0.365,0.023-0.671,0.194-0.86,0.482c-0.341,0.52-0.211,1.269-0.094,1.592  c0.06,0.168,0.003,0.41-0.057,0.667c-0.022,0.092-0.043,0.183-0.061,0.272c-0.036,0.189-0.031,0.378-0.027,0.562  c0.007,0.285,0.014,0.579-0.128,0.918c-0.157,0.375-0.205,0.712-0.252,1.038c-0.046,0.321-0.089,0.625-0.243,0.966l-0.119,0.267  c-0.434,0.979-1.754,3.961-2.618,4.973c-0.69,0.809-0.756,1.134-0.735,1.637c0.007,0.17,0.015,0.347-0.071,0.669  C5.672,31,5.534,31.366,5.367,31.813c-0.556,1.492-0.978,2.679-0.946,3.257c0.021,0.385,0.138,0.754,0.242,1.08  c0.113,0.355,0.219,0.691,0.166,0.928c-0.145,0.639-0.293,1.852,0.342,2.805c0.39,0.584,0.903,3.391,1,4.576  c0.05,0.61,0.418,1.308,0.773,1.983c0.288,0.546,0.614,1.166,0.622,1.507c0.003,0.143-0.011,0.271-0.022,0.391  c-0.086,0.86-0.004,1.476,1.861,2.78c2.112,1.477,2.698,2.498,3.082,3.339c0.078,0.17,0.111,0.325,0.146,0.489  c0.204,0.961,0.644,1.303,2.704,1.303c1.025,0,1.665,0.018,1.905,0.052c0.027,0.033,0.061,0.067,0.101,0.095  c0.021,0.024,0.044,0.059,0.075,0.101c0.297,0.413,0.994,1.381,3.462,2.382c0.894,0.363,1.443,0.693,1.974,1.013  c1.125,0.676,2.097,1.26,5.614,1.668c0.254,0.026,0.485-0.135,0.544-0.381l0.111-0.465c0.647,0.042,1.821,0.117,2.272,0.136  c0.128,0.135,0.368,0.45,0.566,0.711c0.532,0.697,1.261,1.653,1.998,2.196c0.369,0.271,0.495,0.66,0.654,1.151  c0.247,0.763,0.555,1.711,1.928,2.283c0.401,0.167,0.752,0.248,1.073,0.248c0.72,0,1.127-0.405,1.454-0.73  c0.304-0.303,0.524-0.521,1.026-0.521h0.002c0.948,0.024,1.079,0.252,1.702,1.619c0.164,0.358,0.353,0.774,0.594,1.253  c0.184,0.364,0.372,0.775,0.569,1.209c1.04,2.278,2.463,5.398,5.21,5.398c0.304,0,0.546-0.101,0.719-0.3  c0.309-0.354,0.354-0.943,0.173-2.249c-0.171-1.227,0.365-2.14,1.739-2.959c0.482-0.288,1.003-0.754,1.554-1.248  c0.965-0.866,2.06-1.848,2.975-1.87l0.128-0.002c0.683,0,0.96,0.142,1.254,0.291c0.293,0.149,0.626,0.318,1.215,0.318  c0.007,0,0.111-0.002,0.117-0.002c0.266-0.01,0.47-0.029,0.642-0.045c0.456-0.042,0.528-0.124,1.71,0.435  c0.805,0.38,1.783,0.606,2.615,0.606c1.069,0,1.384-0.377,1.459-0.692c0.153-0.642-0.264-1.956-0.521-2.453  c-0.031-0.059-0.051-0.153-0.006-0.228c0.092-0.151,0.604-0.288,1.405-0.132c1.903,0.367,2.809,0.129,3.716-0.27  c0.185,0,0.58,0.323,0.868,0.56c0.499,0.408,1.064,0.871,1.742,0.885c0.624,0,0.991-0.357,1.26-0.619  c0.162-0.158,0.267-0.255,0.348-0.255c0.035,0,0.117,0.013,0.265,0.099c1.067,0.615,2.195,1.872,2.107,2.634  c-0.169,1.471,0.21,2.69,1.042,3.347c0.344,0.271,0.465,0.479,0.648,0.792c0.182,0.311,0.407,0.696,0.894,1.234  c0.402,0.446,0.681,0.652,0.864,0.788c0.054,0.04,0.097,0.067,0.112,0.075c0.006,0.018,0.02,0.084,0.02,0.322  c0,1.111,0.645,1.231,0.922,1.231s0.597-0.111,1.034-0.359c1.02-0.579,1.447-1.766,1.271-3.526  c-0.104-1.034-0.508-1.711-0.978-2.495c-0.361-0.605-0.772-1.291-1.155-2.317c-0.117-0.313-0.239-0.629-0.361-0.944  c-0.779-2.015-1.585-4.098-1.182-5.963c0.308-1.419,1.239-2.103,2.062-2.706c0.403-0.295,0.783-0.573,1.064-0.915  c0.192-0.231,0.429-0.525,0.689-0.852c0.785-0.979,1.859-2.318,2.511-2.909l0.3-0.264c1.026-0.893,2.745-2.387,1.862-4.333  c-0.579-1.278-0.024-3.026,0.307-4.071c0.088-0.277,0.162-0.513,0.204-0.692c0.076-0.326,0.087-0.675,0.099-1.045  c0.024-0.726,0.046-1.411,0.531-1.874c0.617-0.59,0.472-1.428,0.354-2.102c-0.137-0.785-0.158-1.152,0.206-1.375  c0.606-0.371,1.564-0.751,2.41-1.086c1.094-0.434,1.781-0.715,2.105-1.014c0.295-0.272,0.443-0.62,0.429-1.005  c-0.022-0.595-0.439-1.231-1.207-1.838c-0.425-0.336-0.413-0.358-0.209-0.729c0.089-0.162,0.182-0.336,0.248-0.534  c0.074-0.223,0.109-0.433,0.143-0.637c0.068-0.422,0.105-0.655,0.547-0.967c0.486-0.344,0.713-0.728,0.896-1.036  c0.19-0.323,0.286-0.47,0.554-0.57c0.87-0.327,1.391-0.773,1.546-1.327C96.563,26.022,96.438,25.548,96.064,25.069z M89.646,27.383  c0.003-0.001,0.004-0.004,0.007-0.006c0.314,0.901,0.901,2.581,1.126,3.208c0.157,0.441,0.422,0.682,0.686,0.818  c-0.046,0.116-0.082,0.234-0.097,0.357c-0.111,0.038-0.211,0.081-0.312,0.126c-0.197,0.089-0.401,0.182-0.774,0.25  c-0.53,0.098-1.045,0.197-1.343,0.256c-0.092-0.607,0.054-1.634,0.473-3.137c0.105-0.381-0.028-0.71-0.171-1.058  c-0.067-0.165-0.129-0.339-0.181-0.526C89.285,27.581,89.483,27.486,89.646,27.383z M86.917,28.316  c0.605-0.155,1.174-0.311,1.669-0.477c0.059,0.206,0.127,0.391,0.191,0.549c0.123,0.301,0.212,0.518,0.141,0.775  c-0.167,0.601-0.652,2.342-0.479,3.376l-0.861,0.357l-0.66-2.12V28.316z M77.304,36.341c0.303,0.513,0.647,1.011,1.956,0.696  c1.691-0.408,5.088-1.088,5.409-1.044c0.086,0.035,0.294,0.232,0.461,0.39c0.273,0.259,0.556,0.527,0.815,0.64  c0.012,0.005,0.03,0.01,0.044,0.015c-0.276,0.403-0.606,1.016-0.491,1.515c0.053,0.229,0.194,0.403,0.408,0.505  c0.128,0.061,0.205,0.167,0.231,0.315c0.049,0.273-0.095,0.629-0.356,0.939c-0.267-0.055-0.503-0.028-0.528-0.026l-7.521,1.292  l-1.144-4.702C76.834,36.7,77.072,36.521,77.304,36.341z M86.053,47.613c-2.889,0.811-6.481,1.341-9.85,1.682  c-0.003,0-0.006,0-0.009,0.001c-0.937,0.095-1.849,0.173-2.728,0.242c0.417-0.398,0.726-0.711,0.891-1.14  c0.143-0.37,0.523-0.83,0.805-1.048c0.172,0.279,0.52,0.675,1.025,0.647c0.564-0.04,1.337-0.095,1.95-0.672  c0.319-0.3,0.47-0.645,0.615-0.978c0.119-0.272,0.23-0.53,0.433-0.757c0.194-0.219,0.599-0.505,0.989-0.782  c0.676-0.478,1.094-0.785,1.174-1.084c0.031-0.115,0.049-0.25,0.064-0.383c0.016-0.127,0.041-0.341,0.117-0.366  c0.138,0.044,0.294,0.126,0.459,0.213c0.194,0.103,0.408,0.198,0.633,0.274c0.013,0.002,0.022,0.012,0.036,0.012  c0.002,0,0.005-0.001,0.007-0.001c0.114,0.036,0.225,0.08,0.348,0.092c-0.031,0.411,0.081,0.971,0.638,1.307  c0.561,0.339,1.824,0.59,2.538,0.711C86.053,46.225,85.978,46.925,86.053,47.613z M82.222,42.745  c-0.185-0.097-0.359-0.189-0.537-0.247c-0.178-0.059-0.334-0.045-0.464,0.038c-0.232,0.149-0.269,0.452-0.304,0.744  c-0.014,0.109-0.025,0.219-0.051,0.312c-0.053,0.152-0.61,0.546-0.979,0.808c-0.415,0.293-0.843,0.596-1.076,0.859  c-0.253,0.286-0.387,0.592-0.516,0.888c-0.132,0.3-0.255,0.584-0.499,0.814c-0.447,0.421-1.009,0.492-1.644,0.537  c-0.381,0.046-0.654-0.583-0.656-0.588c-0.012-0.029-0.041-0.041-0.061-0.062c-0.019-0.021-0.026-0.051-0.053-0.065  c-0.641-0.347-0.691-1.171-0.688-1.484c0.186-0.114,0.483-0.372,0.79-0.962c0.168-0.323,0.439-0.562,0.701-0.792  c0.35-0.308,0.711-0.625,0.733-1.113c0.023-0.515,0.108-0.895,0.231-1.124l0.15,0.617c0.032,0.127,0.157,0.211,0.285,0.188  l1.186-0.204l0.07,0.758c0.008,0.086,0.06,0.162,0.137,0.2c0.076,0.039,0.168,0.035,0.241-0.009c0.013-0.007,1.322-0.77,2.108-0.743  c0.409,0.021,0.695,0.223,0.896,0.633C82.224,42.746,82.223,42.746,82.222,42.745z M74.18,38.233  c0.552-0.155,1.258-0.565,1.969-1.049l0.862,3.542c-0.347,0.247-0.551,0.798-0.591,1.682c-0.012,0.262-0.222,0.459-0.563,0.76  c-0.283,0.249-0.604,0.531-0.814,0.938c-0.29,0.557-0.54,0.73-0.621,0.776c-0.274-0.054-1.186-0.225-1.641-0.191  c-0.195,0.019-0.504-0.145-0.808-0.295c-0.337-0.167-0.715-0.35-1.093-0.406l-0.577-4.972l2.886-0.802  C73.456,38.326,73.787,38.345,74.18,38.233z M68.405,31.719c0.861-0.194,1.071-0.778,1.196-1.127  c0.106-0.296,0.134-0.342,0.397-0.393c0.474,0,0.878,1.392,1.072,2.062l0.121,0.41c0.169,0.547,0.459,0.825,0.862,0.825  c0.249,0,0.446-0.116,0.605-0.209c0.016-0.009,0.034-0.021,0.052-0.031c0.251,0.334,0.684,1.358,0.251,2.336  c-0.445,1.006-0.52,1.753-0.235,2.233l-2.483,0.69l-0.045-0.385c-0.016-0.137-0.146-0.239-0.274-0.22l-2.345,0.25  c0.22-0.823,0.239-2.039,0.045-3.695C67.491,33.322,67.517,31.918,68.405,31.719z M66.21,39.446c0.147,0,0.298-0.024,0.447-0.072  c0.312-0.101,0.548-0.34,0.728-0.691l2.347-0.25l0.657,5.637c-0.018,0.445-0.164,0.967-0.334,0.999  c-0.574,0.109-0.888,0.426-0.931,0.943c-0.025,0.306-0.365,0.747-0.559,0.793c-0.183,0.043-0.422,0.175-0.699,0.328  c-0.26,0.143-0.583,0.322-0.755,0.351c-0.219,0.038-0.841-0.02-1.305-0.077c-0.001-0.09-0.005-0.177-0.011-0.253  c-0.007-0.091-0.018-0.23-0.006-0.258c0.36-0.304,0.336-1.389,0.041-1.792c-0.09-0.122,0.029-0.486,0.116-0.751  c0.049-0.149,0.096-0.294,0.123-0.424c0.051-0.235-0.012-0.861-0.135-2.04c-0.082-0.785-0.178-1.709-0.229-2.551  C65.904,39.42,66.086,39.446,66.21,39.446z M65.724,47.903c0.292,0.037,0.807,0.094,1.18,0.094c0.115,0,0.217-0.005,0.294-0.019  c0.254-0.044,0.588-0.229,0.911-0.406c0.214-0.118,0.456-0.252,0.572-0.28c0.453-0.108,0.903-0.782,0.941-1.238  c0.021-0.241,0.117-0.417,0.526-0.494c0.451-0.085,0.625-0.639,0.693-1.063c0.289,0.05,0.602,0.193,0.908,0.346  c0.378,0.188,0.754,0.364,1.06,0.347c0.332-0.016,0.99,0.085,1.384,0.158c0.003,0.38,0.085,1.14,0.627,1.638  c-0.368,0.296-0.764,0.803-0.93,1.232c-0.139,0.36-0.448,0.654-0.876,1.06c-0.103,0.097-0.215,0.206-0.329,0.317  c-3.115,0.223-5.641,0.294-6.567,0.313c-0.502,0.011-0.753,0.188-0.955,0.331c-0.13,0.093-0.217,0.154-0.359,0.167  c-0.297,0.028-0.938,0.02-1.367,0.011c0.136-0.235,0.257-0.466,0.293-0.704c0.006-0.039-0.001-0.064,0.001-0.099  c0.046,0.024,0.093,0.05,0.137,0.075c0.222,0.125,0.434,0.243,0.646,0.243c0.039,0,0.079-0.004,0.119-0.013  c0.342-0.078,0.505-0.542,0.693-1.08c0.097-0.275,0.197-0.561,0.306-0.735C65.673,48.037,65.698,47.97,65.724,47.903z   M65.438,41.941c0.088,0.843,0.18,1.715,0.144,1.883c-0.024,0.114-0.067,0.242-0.11,0.373c-0.134,0.409-0.285,0.873-0.045,1.202  c0.176,0.24,0.153,0.994,0.041,1.115c-0.209,0.176-0.188,0.443-0.17,0.678c0.017,0.219,0.033,0.446-0.091,0.646  c-0.139,0.222-0.247,0.533-0.354,0.834c-0.092,0.262-0.245,0.701-0.333,0.758c-0.063,0.002-0.281-0.107-0.409-0.178  c-0.25-0.14-0.553-0.3-0.879-0.295c-0.123-0.079-0.26-0.211-0.396-0.523c-0.225-0.512-0.527-0.702-0.749-0.841  c-0.241-0.151-0.352-0.22-0.324-0.702c0.044-0.794-0.366-1.145-0.665-1.4c-0.186-0.159-0.291-0.255-0.305-0.39  c-0.036-0.336-0.312-0.703-0.631-1.128c-0.328-0.437-0.7-0.931-0.744-1.345c-0.04-0.367,0.113-0.586,0.307-0.864  s0.413-0.593,0.413-1.074c0-0.458,0.258-0.591,0.679-0.77c0.13-0.055,0.254-0.109,0.358-0.173c0.172-0.105,0.281-0.274,0.317-0.488  c0.077-0.459-0.198-1.112-0.755-1.79c-0.079-0.096-0.15-0.2-0.219-0.307c0.566-0.012,1.686-0.081,3.905-0.223  c0.028,0.211,0.058,0.403,0.089,0.558c0.147,0.739,0.402,1.19,0.676,1.478C65.232,39.928,65.343,41.025,65.438,41.941z M55.111,57.5  c0,0-0.168-0.059-0.41-0.141v-4.514c0-0.077-0.035-0.15-0.097-0.197l-0.185-0.144v-0.972h6.969v0.594c0,0.138,0.112,0.25,0.25,0.25  h0.504c-0.056,0.137-0.118,0.267-0.186,0.397c-0.146,0.284-0.298,0.577-0.348,0.978c-0.022,0.177-0.212,0.491-0.432,0.854  c-0.546,0.905-1.348,2.257-1.288,4.086l-4.678,0.053c0.035-0.556,0.065-0.98,0.066-0.991C55.287,57.642,55.218,57.537,55.111,57.5z   M61.889,51.877v-0.594c0-0.138-0.112-0.25-0.25-0.25H54.42v-5.906c0-0.084-0.043-0.163-0.113-0.209  c-0.446-0.291-0.496-0.66-0.545-1.017c-0.019-0.138-0.037-0.267-0.071-0.379c-0.059-0.189-0.251-0.397-0.605-0.762  c0,0-0.001,0-0.001-0.001c-0.013-0.013-0.021-0.023-0.035-0.037c-0.177-0.182-0.373-0.392-0.56-0.608h6.491  c-0.051,0.165-0.083,0.346-0.06,0.566c0.06,0.551,0.476,1.104,0.843,1.593c0.251,0.334,0.512,0.681,0.532,0.88  c0.036,0.338,0.271,0.54,0.478,0.717c0.269,0.229,0.521,0.446,0.49,0.993c-0.039,0.719,0.218,0.939,0.559,1.153  c0.203,0.127,0.394,0.247,0.556,0.617c0.268,0.61,0.591,0.763,0.784,0.854c0.034,0.017,0.074,0.038,0.079,0.03  c0,0.001,0.008,0.029-0.006,0.118c-0.034,0.221-0.193,0.482-0.363,0.76c-0.242,0.398-0.518,0.849-0.576,1.393  c-0.004,0.034-0.017,0.057-0.021,0.089H61.889z M44.727,51.034l-5.32-0.551l0.115-1.091l1.467,0.14c0.003,0,0.006,0,0.009,0  L53.92,50.3v2.327c0,0.077,0.035,0.15,0.097,0.197l0.185,0.144v4.222c-0.302-0.102-0.625-0.207-0.879-0.286  c-0.376-0.113-0.928-0.035-1.513,0.047c-0.544,0.078-1.105,0.157-1.428,0.063c-0.288-0.086-0.558-0.1-0.845-0.114  c-0.494-0.025-1.004-0.052-1.711-0.457c-0.561-0.321-1.189-0.52-1.743-0.693c-0.552-0.174-1.077-0.339-1.375-0.584l0.243-3.865  C44.959,51.165,44.86,51.049,44.727,51.034z M20.19,46.768l-0.279,1.375c-0.051-0.006-0.136-0.024-0.267-0.071  c-0.18-0.063-0.359-0.036-0.503,0.079c-0.321,0.253-0.365,0.847-0.345,1.035c0.041,0.381-0.01,0.503-0.095,0.706  c-0.052,0.125-0.11,0.274-0.161,0.485c-1.444-2.2-5.757-8.869-6.321-9.833c-0.171-0.292-0.342-0.466-0.479-0.606  c-0.33-0.335-0.466-0.474,0.353-2.81c0.809-2.307,1.156-3.277,1.29-3.65c1.379,0.354,2.927,0.716,4.642,1.06  c1.33,0.396,2.933,0.725,4.449,0.988l-2.28,11.228c0,0.003-0.004,0.005-0.005,0.008C20.188,46.763,20.191,46.765,20.19,46.768z   M22.967,35.607c2.024,0.335,3.808,0.544,4.451,0.615l-0.333,2.37c-0.019,0.13,0.068,0.253,0.197,0.279l2.95,0.609l-1.235,8.393  l-8.264-1.282L22.967,35.607z M60.352,37.786c0.54,0.657,0.687,1.159,0.648,1.39c-0.016,0.092-0.057,0.127-0.086,0.145  c-0.085,0.052-0.187,0.094-0.292,0.139c-0.392,0.166-0.983,0.417-0.983,1.23c0,0.324-0.149,0.539-0.323,0.789  c-0.03,0.043-0.061,0.091-0.091,0.136h-7.112c-0.129-0.201-0.233-0.4-0.257-0.582c-0.124-0.962-0.666-4.155-0.686-4.241l0.055-1.696  h0.369c0.165,0.016,2.213,0.21,4.488,0.21c1.094,0,2.233-0.049,3.244-0.181c0,0,0,0.001,0,0.002  C59.326,35.426,59.583,36.849,60.352,37.786z M51.359,41.097c0.041,0.315,0.212,0.63,0.43,0.936  c0.002,0.003,0.003,0.007,0.006,0.009c0.148,0.209,0.314,0.412,0.492,0.605l-10.324-0.502l0.143-1.462  c0.013-0.135-0.084-0.256-0.219-0.272l-3.072-0.373l0.512-4.165l11.377,1.14C50.824,37.721,51.253,40.274,51.359,41.097z   M52.788,43.172c0.195,0.201,0.397,0.416,0.424,0.498c0.027,0.088,0.04,0.19,0.055,0.299c0.051,0.377,0.12,0.884,0.653,1.289v4.542  l-12.632-0.75l0.626-6.406L52.788,43.172z M38.861,35.573c0,0,0,0.001,0,0.001s0,0.001,0,0.001l-0.542,4.401l-7.767-0.941  l-2.94-0.606l0.336-2.39l0.843-5.493l0.144-0.79l10.432,1.715L38.861,35.573z M30.726,39.561l7.78,0.943c0,0,0,0,0,0  c0.001,0,0.001,0,0.002,0l3.076,0.373l-0.796,8.134l-11.296-1.075L30.726,39.561z M61.517,27.857l0.522-0.467  c0.31-0.28,1.034-0.936,1.214-0.975c0.494,0.562,1.271,1.23,2.902,1.417c0.551,0.063,1.12,0.066,1.622,0.07  c0.371,0.002,0.854,0.005,1.099,0.047c-0.013,0.089-0.041,0.163-0.084,0.209c-0.017,0.018-0.067,0.073-0.226,0.073  c-0.608,0-3.239,0.622-3.742,1.656c-0.151,0.312-0.139,0.568-0.082,0.779c-0.126-0.082-0.202-0.252-0.308-0.505  c-0.052-0.123-0.104-0.249-0.168-0.37c-0.075-0.143-0.1-0.259-0.123-0.372c-0.094-0.454-0.276-0.626-1.111-0.687  c-0.453-0.033-1.401-0.165-1.768-0.652C61.35,28.008,61.434,27.933,61.517,27.857z M59.229,28.163c0.283,0.292,0.596,0.44,0.93,0.44  c0.258,0,0.485-0.089,0.697-0.219c0.355,0.476,1.086,0.772,2.14,0.848c0.608,0.044,0.618,0.091,0.659,0.29  c0.025,0.125,0.062,0.298,0.169,0.502c0.058,0.108,0.104,0.221,0.149,0.331c0.158,0.378,0.363,0.868,0.954,0.868  c0.017,0,0.036-0.004,0.053-0.005c0.068,0.176,0.072,0.375-0.133,0.792c-0.585,1.188-0.602,3.094-0.478,4.431  c-1.597,0.101-3.598,0.221-4.105,0.236c-0.313-0.689-0.438-1.395-0.438-1.55c0-0.072-0.009-0.187-0.027-0.311  c0-0.002,0.002-0.004,0.002-0.007c0-0.003-0.004-0.004-0.004-0.007c-0.035-0.229-0.111-0.498-0.304-0.679  c-0.14-0.132-0.322-0.196-0.52-0.184c-0.219-0.009-0.481-0.283-0.764-0.597c-0.193-0.214-0.411-0.456-0.664-0.661  c-0.509-0.412-0.506-0.979-0.502-1.838l0.001-0.249c0-0.455,0.193-0.667,0.418-0.913c0.214-0.235,0.457-0.502,0.457-0.962  c0-0.47,0.053-0.634,0.606-0.837c0.041,0.009,0.083,0.019,0.117,0.025C58.846,27.945,59.054,27.983,59.229,28.163z M50.914,23.134  c1.006-0.08,1.577-0.245,1.925-0.347c0.118-0.035,0.253-0.075,0.268-0.082c0.034,0.018,0.122,0.095,0.345,0.365  c0.827,1.002,2.259,1.103,3.41,1.184c0.506,0.036,1.029,0.073,1.234,0.186c0.414,0.228,0.979,0.259,1.528,0.259l0.619-0.005  c0.141,0,0.249,0.003,0.334,0.008c-0.217,0.208-0.604,0.479-0.864,0.662c-0.506,0.356-1.029,0.724-1.385,1.151  c-0.204,0.244-0.482,0.579-0.346,0.956c0.013,0.035,0.035,0.055,0.052,0.084c-0.431,0.227-0.614,0.533-0.614,1.165  c0,0.267-0.137,0.417-0.327,0.625c-0.244,0.268-0.548,0.602-0.548,1.25l-0.001,0.246c-0.005,0.931-0.009,1.666,0.688,2.229  c0.222,0.18,0.418,0.397,0.606,0.607c0.365,0.405,0.711,0.793,1.165,0.761c0.071-0.002,0.107,0.011,0.147,0.048  c0.036,0.034,0.064,0.087,0.09,0.146c-2.684,0.344-6.432,0.064-7.383-0.017v-3.209c0-0.082-0.04-0.158-0.107-0.205  c-0.283-0.198-0.591-0.526-0.577-0.679c0.017-0.185,0.007-0.714-0.005-1.385c-0.015-0.86-0.034-1.93,0.002-2.497  c0.024-0.403-0.052-0.845-0.134-1.313C50.923,24.679,50.812,23.949,50.914,23.134z M50.675,30.48  c-0.038,0.438,0.442,0.868,0.683,1.054v3.062h-0.375c-0.135,0-0.245,0.107-0.25,0.242l-0.049,1.671L39.39,35.376l0.753-6.118  c1.19,0.128,6.624,0.694,9.983,0.694c0.196,0,0.374-0.005,0.554-0.009C50.683,30.198,50.682,30.397,50.675,30.48z M43.681,22.945  c0.791,0.005,1.875,0.011,4.457,0.181c0.922,0.061,1.657,0.063,2.27,0.037c-0.092,0.855,0.026,1.621,0.137,2.253  c0.079,0.457,0.148,0.851,0.126,1.195c-0.036,0.586-0.017,1.668-0.002,2.537c0.002,0.102,0.004,0.198,0.005,0.296  c-3.232,0.079-9.21-0.546-10.469-0.683l0.734-5.964C42.341,22.938,42.894,22.941,43.681,22.945z M23.752,20.042  c4.917,1.024,13.222,2.325,16.53,2.687c0.058,0.006,0.104,0.011,0.159,0.017l-0.764,6.208c0,0.001-0.001,0.001-0.001,0.002  c0,0,0,0.001,0,0.002l-0.249,2.02l-10.654-1.752c-0.132-0.025-0.262,0.067-0.287,0.202l-0.133,0.73l-0.132-0.053  c-0.163-0.065-0.35-0.091-0.565-0.121c-0.416-0.058-0.933-0.129-1.564-0.517c-0.465-0.286-0.604-0.669-0.752-1.075  c-0.139-0.383-0.283-0.779-0.697-1.055c-0.183-0.122-0.28-0.247-0.296-0.383c-0.034-0.284,0.273-0.653,0.507-0.906  c0.584-0.633-0.265-1.677-0.947-2.515l-0.249-0.309C23.171,22.606,23.364,21.511,23.752,20.042z M23.262,19.938  c-0.42,1.599-0.617,2.81,0.002,3.593l0.254,0.315c0.471,0.579,1.258,1.546,0.968,1.861c-0.347,0.375-0.693,0.824-0.636,1.304  c0.034,0.286,0.207,0.535,0.515,0.74c0.277,0.185,0.383,0.475,0.505,0.81c0.163,0.447,0.347,0.953,0.96,1.33  c0.721,0.443,1.32,0.526,1.758,0.586c0.183,0.025,0.341,0.047,0.448,0.089l0.231,0.093l-0.777,5.068  c-1.105-0.122-5.844-0.678-9.095-1.607c0.158-0.554,0.56-1.96,0.734-2.583c0.065-0.233,0.153-0.485,0.241-0.736  c0.231-0.665,0.43-1.238,0.321-1.619c-0.087-0.307,0.443-1.101,0.729-1.528l0.051-0.077c0.395-0.591,0.39-2.21,0.386-2.484  l1.302-5.401C22.496,19.771,22.869,19.854,23.262,19.938z M10.678,21.664c0.225-0.537,0.213-0.995,0.205-1.329  c-0.003-0.142-0.006-0.265,0.01-0.348l0.051-0.232c0.083-0.351,0.186-0.788,0.024-1.235c-0.076-0.211-0.097-0.572-0.011-0.704  l0.139-0.035c0.175,0,0.256,0.059,0.438,0.203c0.197,0.156,0.466,0.369,0.904,0.421c0.921,0.107,1.147-0.389,1.303-0.674  c0.026-0.048,0.053-0.098,0.084-0.147c0.007-0.012,0.014-0.022,0.021-0.033c0.192,0.029,0.609,0.168,0.821,0.238  c1.15,0.384,5.554,1.443,7.005,1.789l-1.255,5.207l-0.666-0.098c-2.706-0.398-2.868-0.422-3.271-0.128  c-0.057,0.043-0.101,0.04-0.333-0.019c-0.281-0.07-0.707-0.176-1.397-0.055c-0.465,0.082-0.605-0.046-0.799-0.226  c-0.226-0.21-0.505-0.47-1.198-0.358c-0.26,0.042-0.456,0.012-0.581-0.09c-0.224-0.183-0.24-0.592-0.25-0.836l-0.004-0.091  c-0.025-0.44-0.377-0.546-0.959-0.722c-0.116-0.035-0.249-0.076-0.396-0.123C10.591,21.912,10.625,21.789,10.678,21.664z   M6.788,30.116c-0.01-0.238-0.014-0.347,0.497-0.945c0.958-1.123,2.276-4.097,2.772-5.217l0.116-0.262  c0.196-0.436,0.259-0.815,0.308-1.154c0.121,0.038,0.235,0.073,0.334,0.103c0.479,0.145,0.6,0.192,0.605,0.272l0.004,0.083  c0.012,0.307,0.035,0.879,0.433,1.204c0.241,0.196,0.568,0.264,0.978,0.196c0.446-0.072,0.586,0.055,0.777,0.231  c0.229,0.212,0.516,0.478,1.227,0.351c0.586-0.103,0.919-0.02,1.188,0.047c0.243,0.062,0.494,0.124,0.75-0.063  c0.231-0.167,0.464-0.14,2.903,0.219l0.678,0.1c-0.005,0.687-0.084,1.694-0.302,2.021l-0.051,0.077  c-0.421,0.63-0.945,1.414-0.793,1.943c0.065,0.228-0.145,0.832-0.313,1.316c-0.09,0.261-0.182,0.524-0.25,0.766  c-0.175,0.624-0.582,2.05-0.739,2.6c-5.958-1.207-9.931-2.63-11.183-3.109C6.8,30.538,6.795,30.295,6.788,30.116z M17.533,55.329  c0,0.006-0.001,0.011-0.002,0.018c-0.35-0.08-0.961-0.095-2.195-0.095c-1.617,0-1.649-0.149-1.726-0.511  c-0.041-0.19-0.091-0.427-0.214-0.697c-0.471-1.031-1.21-2.198-3.418-3.743c-1.519-1.062-1.489-1.363-1.439-1.861  c0.016-0.157,0.031-0.324,0.027-0.513c-0.014-0.578-0.365-1.245-0.737-1.951c-0.294-0.559-0.628-1.193-0.661-1.599  c-0.075-0.908-0.567-4.152-1.166-5.049c-0.444-0.666-0.287-1.641-0.199-2.03c0.113-0.501-0.041-0.984-0.188-1.451  c-0.094-0.295-0.183-0.574-0.197-0.832c-0.022-0.416,0.591-2.063,0.886-2.854c0.115-0.31,0.214-0.578,0.286-0.786  c0.915,0.348,3.1,1.13,6.306,1.975c-0.146,0.407-0.498,1.393-1.275,3.61c-0.88,2.51-0.758,2.797-0.238,3.325  c0.124,0.126,0.265,0.27,0.405,0.508c0.659,1.127,6.436,10.042,6.803,10.561c0.067,0.095,0.141,0.188,0.212,0.279  c0.13,0.165,0.327,0.415,0.309,0.511c-0.003,0.021-0.034,0.057-0.107,0.099c-0.367,0.212-0.487,0.577-0.593,0.899  c-0.087,0.263-0.168,0.512-0.369,0.696C17.636,54.214,17.579,54.832,17.533,55.329z M23.367,59.036  c-0.537-0.323-1.146-0.688-2.113-1.081c-2.201-0.894-2.779-1.697-3.026-2.04c-0.083-0.117-0.156-0.218-0.202-0.232  c-0.008-0.013-0.017-0.022-0.025-0.035c0.011-0.09,0.021-0.178,0.03-0.272c0.04-0.434,0.084-0.924,0.35-1.168  c0.295-0.272,0.407-0.61,0.504-0.907c0.104-0.314,0.176-0.512,0.368-0.622c0.197-0.114,0.315-0.262,0.349-0.438  c0.062-0.319-0.166-0.608-0.407-0.915c-0.066-0.084-0.134-0.17-0.197-0.259c-0.008-0.012-0.034-0.05-0.047-0.07  c0.042-0.497,0.131-0.722,0.211-0.912c0.095-0.228,0.186-0.443,0.131-0.953c-0.021-0.193,0.081-0.559,0.184-0.588  c0.359,0.126,0.598,0.136,0.755,0.028c0.089-0.061,0.144-0.157,0.142-0.214l0.259-1.275l8.291,1.286l-1.766,12.004  C25.001,60.018,24.262,59.574,23.367,59.036z M31.545,59.856c-0.201,0-1.772-0.1-2.779-0.166c-0.244-0.021-0.463,0.145-0.52,0.383  l-0.105,0.441c-0.178-0.022-0.325-0.047-0.488-0.071l1.768-12.013l9.604,0.915l-1.163,11.022l-5.782-0.239  C31.893,59.941,31.737,59.856,31.545,59.856z M55.474,64.356c-0.129,0.144-0.288,0.322-0.288,0.614c0,0.2,0.044,0.362,0.091,0.533  c0.041,0.15,0.081,0.32,0.1,0.538l-0.072,0.001c-1.283,0.032-2.523,1.145-3.617,2.125c-0.514,0.461-0.999,0.896-1.397,1.134  c-1.721,1.026-2.446,2.32-2.218,3.956c0.157,1.135,0.084,1.406,0.098,1.411c-2.104-0.001-3.321-2.669-4.299-4.813  c-0.204-0.446-0.397-0.869-0.586-1.245c-0.234-0.464-0.418-0.868-0.577-1.216c-0.636-1.396-0.986-2.163-2.651-2.206  c-0.877,0-1.349,0.471-1.694,0.814c-0.298,0.296-0.454,0.438-0.748,0.438c-0.184,0-0.416-0.058-0.688-0.172  c-0.949-0.395-1.14-0.984-1.362-1.668c-0.181-0.556-0.385-1.186-1.013-1.647c-0.622-0.458-1.3-1.349-1.795-1.998  c-0.093-0.121-0.162-0.21-0.239-0.309l5.56,0.229h0.01c0.127,0,0.235-0.096,0.249-0.224l1.021-9.673l5.082,0.526l-0.235,3.745  c-0.004,0.07,0.021,0.14,0.07,0.19c0.366,0.375,0.966,0.563,1.661,0.782c0.555,0.175,1.13,0.355,1.644,0.65  c0.811,0.465,1.434,0.497,1.935,0.522c0.267,0.014,0.498,0.025,0.728,0.094c0.428,0.13,1.046,0.04,1.641-0.046  c0.505-0.072,1.028-0.148,1.294-0.063c0.492,0.151,1.249,0.41,1.593,0.528c-0.046,0.651-0.186,2.746-0.159,3.368  c0.021,0.466,0.329,1.099,0.628,1.71c0.184,0.377,0.373,0.766,0.407,0.962C55.672,64.125,55.612,64.201,55.474,64.356z   M63.01,67.645c-0.692,0-1.511-0.191-2.188-0.511c-1.171-0.553-1.488-0.593-2.229-0.526c-0.157,0.015-0.343,0.032-0.666,0.043  c-0.35,0-0.514-0.084-0.761-0.21c-0.29-0.146-0.653-0.316-1.286-0.373c-0.018-0.294-0.071-0.513-0.12-0.694  c-0.041-0.15-0.073-0.27-0.073-0.402c0-0.097,0.055-0.163,0.161-0.281c0.151-0.171,0.36-0.404,0.288-0.823  c-0.046-0.268-0.233-0.651-0.45-1.097c-0.25-0.513-0.562-1.15-0.577-1.513c-0.016-0.35,0.027-1.224,0.074-2.012l4.732-0.053  c0.046,0.561,0.085,0.934,0.109,1.171c0.022,0.208,0.038,0.358,0.003,0.438c-0.061,0.098-0.162,0.262-0.311,0.679  c-0.522,1.463-0.536,1.918-0.389,2.178c0.063,0.113,0.168,0.188,0.294,0.214c0.284,0.056,2.232,0.024,3.024,0.01  c0.019,0.299,0.089,0.808,0.297,1.289c-0.045,0.264-0.012,0.542,0.118,0.79c0.232,0.448,0.436,1.272,0.444,1.634  C63.414,67.619,63.254,67.645,63.01,67.645z M65.023,64.104c-0.128-0.012-0.271-0.041-0.388-0.041c-0.732,0-1.146,0.23-1.384,0.482  c-0.12-0.48-0.113-0.905-0.113-0.911c0.002-0.068-0.024-0.135-0.073-0.184c-0.048-0.049-0.107-0.082-0.183-0.073  c-1.392,0.029-2.979,0.041-3.12,0.035c-0.029-0.055-0.083-0.345,0.424-1.764c0.131-0.367,0.215-0.502,0.266-0.583  c0.127-0.205,0.12-0.268,0.068-0.755c-0.028-0.269-0.073-0.693-0.128-1.391c-0.142-1.809,0.674-3.16,1.214-4.055  c0.036-0.06,0.066-0.112,0.1-0.167c0.885-0.008,2.13-0.025,3.459-0.061L65.023,64.104z M65.423,54.131  c-0.001,0-0.001,0.001-0.002,0.001c-1.045,0.029-2.198,0.051-3.44,0.063c0.063-0.138,0.11-0.265,0.125-0.381  c0.039-0.313,0.158-0.544,0.296-0.812c0.158-0.308,0.338-0.656,0.393-1.162c0.035-0.335,0.185-0.64,0.354-0.933  c0.208,0.006,0.605,0.016,0.986,0.016c0.277,0,0.544-0.005,0.714-0.021c0.276-0.024,0.45-0.147,0.604-0.256  c0.176-0.125,0.327-0.232,0.692-0.24c1.201-0.025,5.107-0.137,9.527-0.561c-0.252,0.281-0.607,0.621-0.991,0.804  c-0.509,0.242-0.815,0.606-1.087,0.929c-0.174,0.206-0.338,0.401-0.528,0.524c-0.566,0.366-0.881,0.878-1.227,1.47  c-0.083,0.022-0.161,0.037-0.246,0.065C70.899,53.865,68.679,54.039,65.423,54.131C65.424,54.132,65.424,54.131,65.423,54.131z   M77.752,62.42c-1.215,0.417-4.719,0.801-5.238,0.801c-0.51,0-0.588,0-0.928-0.759c-0.272-0.607-0.053-1.524,0.093-2.131  c0.054-0.223,0.099-0.413,0.114-0.55c0.042-0.353-0.12-0.594-0.264-0.806c-0.13-0.193-0.253-0.376-0.266-0.672  c-0.016-0.358-0.18-0.979-0.368-1.699c-0.193-0.734-0.403-1.549-0.508-2.254c0.597-0.065,1.075-0.144,1.359-0.236  c0.701-0.229,1.291-0.251,1.816-0.263c0.24,0.412,0.738,0.769,1.198,1.084c0.277,0.189,0.696,0.477,0.729,0.6  c0.1,0.374,0.393,0.571,0.677,0.761c0.164,0.11,0.334,0.225,0.475,0.376c0.191,0.205,0.409,0.358,0.602,0.493  c0.231,0.162,0.432,0.303,0.511,0.477c0.04,0.089,0.079,0.186,0.12,0.288c0.107,0.268,0.237,0.582,0.441,0.884  c-0.216,0.379-0.397,0.813-0.51,1.333C77.645,60.898,77.649,61.658,77.752,62.42z M67.072,64.335c-0.418,0-0.921-0.059-1.536-0.178  c-0.005-0.001-0.009-0.001-0.014-0.001l0.143-9.533c1.491-0.044,3.031-0.113,4.226-0.222c0.106,0.737,0.322,1.577,0.521,2.331  c0.175,0.662,0.34,1.288,0.353,1.593c0.02,0.437,0.203,0.71,0.351,0.93c0.133,0.196,0.201,0.307,0.183,0.468  c-0.015,0.122-0.057,0.292-0.104,0.491c-0.161,0.673-0.405,1.69-0.063,2.453c0.028,0.063,0.055,0.112,0.081,0.168l-4.375,0.387  c-0.088,0.008-0.165,0.062-0.203,0.141c-0.038,0.08-0.031,0.174,0.018,0.247l0.48,0.723C67.109,64.332,67.094,64.335,67.072,64.335z   M79.032,66.681c0.12,0.313,0.241,0.624,0.356,0.934c0.416,1.112,0.87,1.871,1.235,2.481c0.44,0.736,0.759,1.27,0.841,2.081  c0.133,1.331-0.126,2.191-0.771,2.558c-0.228,0.129-0.367,0.186-0.448,0.21c-0.007-0.048-0.014-0.116-0.014-0.213  c0-0.691-0.127-0.896-0.536-1.2c-0.161-0.119-0.382-0.283-0.718-0.655c-0.417-0.462-0.605-0.785-0.772-1.069  c-0.205-0.352-0.399-0.683-0.893-1.072c-0.545-0.43-0.794-1.345-0.667-2.446c0.157-1.368-1.427-2.938-2.602-3.616  c-0.271-0.155-0.521-0.231-0.765-0.231c-0.494,0-0.813,0.312-1.046,0.539c-0.227,0.22-0.354,0.335-0.574,0.335  c-0.299-0.006-0.723-0.353-1.096-0.658c-0.603-0.493-1.304-0.974-1.932-0.694c-0.325,0.145-0.604,0.252-0.939,0.314l-0.395-0.594  l4.188-0.37c0.271,0.36,0.542,0.408,1.026,0.408c0.447,0,3.842-0.336,5.318-0.812C78.07,64.173,78.552,65.439,79.032,66.681z   M81.818,55.26c-0.257,0.32-0.49,0.611-0.68,0.84c-0.202,0.245-0.519,0.478-0.885,0.746c-0.534,0.392-1.142,0.846-1.635,1.505  c-0.114-0.203-0.201-0.412-0.28-0.607c-0.044-0.109-0.086-0.214-0.129-0.309c-0.136-0.299-0.399-0.483-0.679-0.679  c-0.181-0.127-0.367-0.258-0.521-0.424c-0.181-0.194-0.384-0.331-0.563-0.451c-0.261-0.175-0.424-0.291-0.473-0.475  c-0.08-0.302-0.455-0.559-0.93-0.884c-0.305-0.209-0.654-0.454-0.886-0.696c0.347-0.026,0.66-0.087,0.934-0.273  c0.645-0.438,2.454-0.611,2.937-0.282c0.522,0.358,1.278,0.233,1.778,0.153c0.149-0.024,0.276-0.047,0.348-0.048  c0.21,0.043,1.14,0.736,2.012,1.45C82.048,54.974,81.931,55.119,81.818,55.26z M84.753,51.957l-0.315,0.278  c-0.534,0.483-1.265,1.351-1.956,2.201c-0.937-0.772-1.974-1.56-2.312-1.56c-0.106,0-0.262,0.023-0.444,0.054  c-0.422,0.066-1.057,0.172-1.414-0.072c-0.7-0.479-2.744-0.233-3.501,0.28c-0.28,0.191-0.676,0.2-1.178,0.211  c-0.326,0.007-0.706,0.021-1.125,0.082c0.255-0.404,0.481-0.683,0.829-0.907c0.253-0.164,0.44-0.387,0.64-0.622  c0.25-0.297,0.509-0.604,0.919-0.8c0.701-0.333,1.288-1.066,1.481-1.324c3.337-0.342,6.884-0.869,9.759-1.669  c0.054,0.232,0.125,0.461,0.226,0.683C86.892,49.962,85.903,50.957,84.753,51.957z M86.625,44.005c-0.1,0.314-0.216,0.686-0.32,1.09  c-0.757-0.128-1.931-0.37-2.396-0.651c-0.568-0.344-0.368-1.027-0.359-1.055c0.025-0.081,0.009-0.169-0.046-0.235  c-0.054-0.065-0.136-0.1-0.222-0.088c-0.143,0.017-0.28-0.007-0.417-0.044c-0.123-0.454-0.453-1.355-1.51-1.407  c-0.691-0.04-1.567,0.372-2.049,0.624l-0.039-0.416l5.765-0.99l0.71,2.641c0.027,0.103,0.117,0.177,0.224,0.185l0.752,0.054  C86.688,43.803,86.658,43.899,86.625,44.005z M86.882,42.538c-0.009,0.25-0.022,0.478-0.051,0.68l-0.653-0.046l-0.642-2.388  c0.178,0.012,0.413,0.06,0.498,0.256c0.154,0.352,0.565,0.651,0.883,0.84C86.896,42.107,86.889,42.329,86.882,42.538z   M87.722,39.974c-0.421,0.401-0.621,0.879-0.724,1.362c-0.226-0.154-0.434-0.331-0.505-0.496c-0.06-0.136-0.148-0.233-0.246-0.312  c0.305-0.402,0.452-0.849,0.383-1.242c-0.054-0.307-0.234-0.548-0.509-0.679c-0.075-0.036-0.117-0.087-0.136-0.167  c-0.062-0.263,0.149-0.754,0.517-1.252c0.004,0,0.006,0.001,0.01,0.002c0.356,0.09,0.846,0.216,1.18,0.408  c-0.039,0.401,0.028,0.814,0.09,1.167C87.888,39.38,87.938,39.768,87.722,39.974z M87.812,37.108  c-0.373-0.187-0.813-0.309-1.177-0.401c-0.202-0.051-0.393-0.1-0.49-0.142c-0.179-0.078-0.451-0.336-0.671-0.544  c-0.274-0.26-0.451-0.423-0.615-0.49c-0.472-0.199-5.664,1.008-5.716,1.021c-0.995,0.24-1.153-0.028-1.44-0.517  c-0.001-0.001-0.002-0.002-0.002-0.004c0.309-0.248,0.597-0.485,0.836-0.688c0.464-0.395,0.624-0.911,0.766-1.366  c0.182-0.585,0.309-0.927,0.812-1.138c2.133-0.894,2.765-2.001,3.226-2.809c0.176-0.309,0.315-0.552,0.499-0.717  c0.315-0.283,1.539-0.603,2.579-0.867v2.37c0,0.025,0.004,0.05,0.012,0.074l1.232,3.959l0.534,1.717  C88.014,36.729,87.891,36.912,87.812,37.108z M88.627,36.271l-0.411-1.321l2.055-0.582l0.332,1  C89.902,35.648,89.187,35.953,88.627,36.271z M91.067,35.183l-0.315-0.951L91.571,34c0.089,0.109,0.229,0.376,0.25,0.879  C91.574,34.981,91.313,35.085,91.067,35.183z M92.918,34.152c0.002,0.063-0.009,0.141-0.107,0.232  c-0.08,0.074-0.266,0.173-0.502,0.282c-0.086-0.846-0.485-1.127-0.541-1.16c-0.061-0.036-0.131-0.046-0.197-0.026l-3.503,0.992  l-0.341-1.096l1.075-0.446c0.117-0.023,0.827-0.164,1.569-0.3c0.435-0.08,0.688-0.195,0.891-0.287  c0.061-0.028,0.118-0.049,0.176-0.072c0.098,0.245,0.294,0.506,0.651,0.789C92.843,33.657,92.914,34.047,92.918,34.152z   M95.472,26.206c-0.062,0.218-0.411,0.465-0.936,0.662c-0.609,0.229-0.851,0.638-1.063,0.998c-0.154,0.261-0.3,0.508-0.612,0.729  c-0.783,0.554-0.879,1.147-0.956,1.624c-0.024,0.153-0.048,0.313-0.104,0.48c-0.033,0.099-0.081,0.181-0.127,0.265  c-0.151-0.084-0.315-0.241-0.424-0.545c-0.24-0.673-0.897-2.554-1.188-3.388c0.933-1.006,0.852-2.812,0.804-3.838l-0.007-0.149  c-0.028-0.625,1.003-1.09,1.583-1.332c0.308,0,0.813,0.507,1.045,1.235c0.288,0.899,0.729,1.437,1.289,2.118  c0.155,0.188,0.322,0.391,0.501,0.621C95.391,25.832,95.518,26.042,95.472,26.206z M22.651,66.975  c-0.838-1.239-1.974-1.771-2.754-2.063c-0.469-0.177-0.849-0.262-1.16-0.262c-0.705,0-0.968,0.427-1.063,0.681  c-0.169,0.456-0.317,0.456-0.449,0.456c-0.103,0-0.208-0.017-0.313-0.03c-0.423-0.059-0.824-0.045-1.13,0.145  c-0.562,0.348-0.483,0.973-0.436,1.347c0.059,0.463,0.025,0.504-0.085,0.561c-0.007,0.001-0.175,0.011-0.363,0.001  c-0.113-0.007-0.23-0.015-0.352-0.015c-0.527,0-1.296,0.124-1.875,1.19c-0.734,1.352-2.164,2.75-2.546,2.953  c-0.215,0.115-0.342,0.32-0.338,0.548c0.007,0.49,0.545,0.781,1.496,1.252c0.191,0.095,0.353,0.172,0.409,0.209  c0.262,0.225,0.671,0.174,1.507,0.138c0.413-0.018,0.896-0.039,1.377-0.039c1.337,0,1.789,0.174,1.939,0.277  c0.921,0.633,3.038,3.652,3.064,5.159c0.036,2.007,0.895,2.382,1.067,2.437c0.049,0.016,0.1,0.023,0.151,0.023h0.02  c0.102-0.005,0.628-0.045,0.942-0.439c0.127-0.16,0.263-0.437,0.186-0.842c-0.099-0.519-0.322-2.848-0.399-3.701  c-0.021-0.224-0.187-0.405-0.407-0.446l-0.238-0.045c-0.066-0.164-0.157-0.384-0.25-0.595c-0.229-0.519-0.343-0.779,0.194-1.635  c0.666-1.059,3.163-4.237,3.188-4.27c0.121-0.153,0.141-0.362,0.052-0.536C24.06,69.377,23.379,68.05,22.651,66.975z M20.001,73.708  c-0.761,1.21-0.589,1.828-0.253,2.591c0.161,0.367,0.326,0.791,0.327,0.793c0.063,0.161,0.205,0.278,0.375,0.31l0.137,0.026  c0.08,0.854,0.278,2.889,0.393,3.452c-0.01,0.01-0.032,0.021-0.059,0.031c-0.115-0.141-0.323-0.522-0.34-1.446  c-0.035-1.937-2.367-5.188-3.498-5.966c-0.456-0.313-1.229-0.453-2.506-0.453c-0.496,0-0.994,0.021-1.42,0.04  c-0.399,0.017-0.75,0.034-0.924,0.021c-0.105-0.066-0.257-0.143-0.504-0.265c-0.171-0.085-0.451-0.224-0.676-0.351  c0.71-0.597,1.838-1.813,2.499-3.03c0.438-0.806,0.897-0.677,1.285-0.654c0.27,0.018,0.533,0.068,0.878-0.107  c0.775-0.395,0.678-1.164,0.626-1.578c-0.016-0.123-0.042-0.329-0.03-0.371c0.051-0.029,0.265-0.031,0.47-0.003  c0.149,0.02,0.299,0.039,0.446,0.039c0.656,0,1.11-0.363,1.388-1.119c0.001-0.002,0.183-0.101,0.933,0.181  c0.708,0.265,1.606,0.695,2.277,1.687c0.499,0.738,0.99,1.628,1.227,2.072C22.433,70.397,20.588,72.774,20.001,73.708z   M39.204,79.956c-0.139-0.134-0.296-0.286-0.407-0.463c-0.421-0.675-1.591-1.046-1.963-1.046H36.83  c-0.253,0.021-0.401,0.14-0.481,0.234c-0.181,0.215-0.158,0.469-0.145,0.621c0.005,0.054,0.011,0.128,0.003,0.153  c-0.01,0.027-0.063,0.098-0.099,0.145c-0.154,0.203-0.474,0.626-0.172,1.17c0.07,0.126,0.077,0.267,0.082,0.504  c0.004,0.19,0.011,0.386,0.054,0.588c0.096,0.446,0.438,0.746,0.85,0.746c0.324,0,0.619-0.192,0.747-0.481  c0.074-0.12,0.477-0.368,0.7-0.408c0.503-0.092,0.937-0.49,1.114-0.711C39.834,80.568,39.408,80.155,39.204,79.956z M38.19,80.734  c-0.336,0.062-0.844,0.304-1.17,0.623c-0.001-0.035-0.001-0.069-0.002-0.104c-0.006-0.276-0.013-0.62-0.209-0.907  c0.01-0.027,0.063-0.097,0.098-0.143c0.089-0.118,0.201-0.265,0.259-0.459c0.021-0.068,0.032-0.134,0.039-0.199  c0.284,0.112,0.634,0.299,0.746,0.477c0.153,0.245,0.341,0.44,0.495,0.59C38.356,80.673,38.265,80.721,38.19,80.734z M29.492,74.123  c-0.546-0.274-1.681,0.043-1.723,0.815c-0.008,0.135,0.025,0.339,0.225,0.55c0.208,0.221,0.604,0.443,0.957,0.443  c0.044,0,0.156-0.014,0.199-0.025c0.434-0.118,0.678-0.669,0.713-1.022C29.897,74.541,29.759,74.256,29.492,74.123z M32.284,75.301  c-0.525-0.232-1.063,0.136-1.245,0.466c-0.07,0.128-0.082,0.279-0.03,0.416c0.232,0.621,0.668,0.992,1.167,0.992  c0.009,0,0.049-0.001,0.058-0.002c0.344-0.019,0.608-0.264,0.674-0.624C32.987,76.116,32.771,75.517,32.284,75.301z M36.442,77.762  c-0.034-0.268-0.216-0.642-0.886-0.906c-0.728-0.288-1.261-0.434-1.583-0.434c-0.434,0-0.634,0.257-0.677,0.496  c-0.091,0.501,0.36,0.727,0.553,0.823c0.13,0.065,0.265,0.133,0.317,0.224c0.273,0.479,0.81,0.813,1.305,0.813  c0.213,0,0.41-0.062,0.571-0.18C36.337,78.384,36.483,78.078,36.442,77.762z"></path></svg>