<svg xmlns="http://www.w3.org/2000/svg" xmlns:xlink="http://www.w3.org/1999/xlink" version="1.1" x="0px" y="0px" viewBox="0 0 95 95" enable-background="new 0 0 95 95" xml:space="preserve"><path fill="none" d="M39.605,72.865c0-1.652,1.337-2.988,2.989-2.988h0.233V34.389h-0.233c-1.652,0-2.989-1.337-2.989-2.989  c0-1.06,0.583-1.947,1.416-2.478h-6.17c0.832,0.531,1.416,1.418,1.416,2.478c0,1.651-1.337,2.989-2.989,2.989h-0.233v35.488h0.233  c1.652,0,2.989,1.336,2.989,2.988c0,1.36-0.922,2.461-2.163,2.823h7.664C40.527,75.326,39.605,74.226,39.605,72.865z"></path><path fill="none" d="M58.734,72.865c0-1.652,1.336-2.988,2.988-2.988h0.233V34.389h-0.233c-1.652,0-2.988-1.337-2.988-2.989  c0-1.06,0.584-1.947,1.415-2.478h-6.171c0.833,0.531,1.417,1.418,1.417,2.478c0,1.651-1.337,2.989-2.99,2.989h-0.233v35.488h0.233  c1.653,0,2.99,1.336,2.99,2.988c0,1.36-0.923,2.461-2.163,2.823h7.665C59.657,75.326,58.734,74.226,58.734,72.865z"></path><path d="M77.282,75.688h-4.921c1.24-0.362,2.164-1.463,2.164-2.823c0-1.652-1.338-2.988-2.99-2.988h-0.233V34.389h0.233  c1.652,0,2.99-1.337,2.99-2.989c0-1.06-0.585-1.947-1.417-2.478h4.174V19.43l13.534-0.038L47.5,0L4.184,19.392l12.542,0.038v9.492  h5.166c-0.832,0.531-1.416,1.418-1.416,2.478c0,1.651,1.337,2.989,2.989,2.989h0.233v35.488h-0.233  c-1.651,0-2.989,1.336-2.989,2.988c0,1.36,0.922,2.461,2.163,2.823h-5.913v9.491h-5.852v9.491h72.261V85.18h-5.853V75.688z   M42.827,69.877h-0.233c-1.652,0-2.989,1.336-2.989,2.988c0,1.36,0.922,2.461,2.163,2.823h-7.664  c1.24-0.362,2.163-1.463,2.163-2.823c0-1.652-1.337-2.988-2.989-2.988h-0.233V34.389h0.233c1.652,0,2.989-1.337,2.989-2.989  c0-1.06-0.583-1.947-1.416-2.478h6.17c-0.832,0.531-1.416,1.418-1.416,2.478c0,1.651,1.337,2.989,2.989,2.989h0.233V69.877z   M61.956,69.877h-0.233c-1.652,0-2.988,1.336-2.988,2.988c0,1.36,0.923,2.461,2.163,2.823h-7.665  c1.24-0.362,2.163-1.463,2.163-2.823c0-1.652-1.337-2.988-2.99-2.988h-0.233V34.389h0.233c1.653,0,2.99-1.337,2.99-2.989  c0-1.06-0.584-1.947-1.417-2.478h6.171c-0.831,0.531-1.415,1.418-1.415,2.478c0,1.651,1.336,2.989,2.988,2.989h0.233V69.877z"></path></svg>