<svg xmlns="http://www.w3.org/2000/svg" data-name="Layer 1" viewBox="0 0 100 100" x="0px" y="0px"><title>majlobv2</title><path d="M11,62.21h0a2,2,0,0,1-2-2C9.14,47.83,19.21,34.43,34,26.85a54.07,54.07,0,0,1,17.14-5.53,2,2,0,1,1,.56,4,50.1,50.1,0,0,0-15.87,5.13C22.31,37.34,13.12,49.32,13,60.24A2,2,0,0,1,11,62.21Z"></path><path d="M81.8,51.85a2,2,0,0,1-1.92-2.55,18.68,18.68,0,0,0-1-13.84,17.39,17.39,0,0,0-7.06-7.19,2,2,0,1,1,2-3.48,21.32,21.32,0,0,1,8.64,8.84,22.6,22.6,0,0,1,1.24,16.76A2,2,0,0,1,81.8,51.85Z"></path><path d="M36.21,82.94a38,38,0,0,1-8.32-.89,2,2,0,0,1,.88-3.9c8.77,2,19.38.24,29.11-4.75a53.21,53.21,0,0,0,6.66-4.05,2,2,0,0,1,2.33,3.25A57,57,0,0,1,59.7,77,52.25,52.25,0,0,1,36.21,82.94Z"></path><path d="M44.51,73.43a6.79,6.79,0,1,1,6-9.89,6.8,6.8,0,0,1-6,9.89Zm0-9.58A2.79,2.79,0,0,0,42,67.91h0a2.79,2.79,0,0,0,5-2.54A2.79,2.79,0,0,0,44.49,63.85Z"></path><path d="M26.25,72.7a2,2,0,0,1-.91-3.78,2.43,2.43,0,0,0-2.22-4.33A2,2,0,1,1,21.29,61a6.43,6.43,0,1,1,5.87,11.45A2,2,0,0,1,26.25,72.7Z"></path><path d="M15,67.83a5.76,5.76,0,0,1-3.26-.93c-2.66-1.77-3.49-5.61-2.35-10.8a2,2,0,1,1,3.91.86c-.87,4-.19,6,.66,6.61s3.28.3,7.13-2.39a2,2,0,1,1,2.29,3.28C19.72,67,17,67.83,15,67.83Z"></path><path d="M28.49,82.13h-.14c-2.72-.19-5.48-2.67-6.28-5.64s.34-5.6,3.07-7.44a2,2,0,0,1,2.24,3.31c-1.3.88-1.77,1.89-1.45,3.09a3.85,3.85,0,0,0,2.7,2.69,2,2,0,0,1-.14,4Z"></path><path d="M49.08,35.27a2.4,2.4,0,0,1-.74-.12,2.38,2.38,0,1,1,.74.12Zm1.43-3.13h0Z"></path><path d="M36.77,40.67a2.4,2.4,0,0,1-2.13-1.3h0a2.4,2.4,0,0,1,1-3.22,2.4,2.4,0,0,1,3.22,1,2.39,2.39,0,0,1-2.13,3.49Z"></path><path d="M26.87,50.94a2.4,2.4,0,0,1-.74-.12,2.38,2.38,0,1,1,.74.12Zm1.43-3.13h0Z"></path><path d="M76.59,87a2,2,0,0,1-1.83-1.19L63,59.44c-3-6.79-3.54-14.54-1.37-20.74A2,2,0,0,1,63,37.44l5.37-1.54a2,2,0,0,1,1.8.36c5.11,4.11,8.78,11,9.8,18.33l4,28.59a2,2,0,0,1-1.43,2.2l-5.37,1.54A2,2,0,0,1,76.59,87ZM65.12,41a25.28,25.28,0,0,0,1.56,16.82l11,24.79,2-.58L76,55.15A25.29,25.29,0,0,0,68.43,40Z"></path><path d="M61.69,32.84a2,2,0,0,1-.66-.11c-4.3-1.51-7.25-7.33-6.31-12.46l1.72-9.41a2,2,0,0,1,3.45-1l6.44,7.08c3.51,3.86,4.08,10.36,1.23,13.92a2,2,0,0,1-1,.67l-4.3,1.23A2,2,0,0,1,61.69,32.84Zm-2-17.29-1,5.43c-.55,3,1,6.55,3.18,7.74l2.92-.84c1.25-2.18.65-6-1.39-8.25Z"></path></svg>