<svg xmlns="http://www.w3.org/2000/svg" version="1.0" viewBox="0 0 1090.000000 492.000000" preserveAspectRatio="xMidYMid meet" x="0px" y="0px"><metadata>
Created by potrace 1.11, written by Peter Selinger 2001-2013
</metadata><g transform="translate(0.000000,492.000000) scale(0.100000,-0.100000)" fill="#000000" stroke="none"><path d="M0 4900 c0 -20 7 -20 880 -20 l880 0 0 -145 0 -145 -22 5 c-13 2 -76 14 -141 25 -107 18 -129 19 -229 8 -190 -20 -188 -16 -188 -425 l-1 -308 -91 -60 c-120 -79 -303 -260 -387 -383 -120 -177 -182 -340 -184 -482 -1 -149 -6 -142 357 -499 176 -174 393 -387 482 -474 l161 -158 217 329 216 328 107 77 c58 42 116 77 128 77 12 0 62 -30 111 -67 49 -37 103 -77 119 -89 l30 -22 62 37 c41 24 114 91 217 198 l156 161 -220 212 -220 213 0 541 c0 510 -2 543 -19 583 -12 25 -32 48 -49 57 -17 9 -122 32 -234 51 -112 19 -213 38 -225 40 -23 5 -23 8 -23 160 l0 155 3560 0 3560 0 0 -155 c0 -152 0 -155 -22 -160 -13 -2 -114 -21 -226 -40 -112 -19 -217 -42 -234 -51 -17 -9 -37 -32 -49 -57 -17 -40 -19 -73 -19 -583 l0 -542 -220 -212 -220 -212 156 -161 c103 -107 176 -174 217 -198 l62 -37 30 22 c17 12 70 52 119 89 49 37 99 67 111 67 12 0 70 -35 128 -77 l107 -77 216 -328 217 -329 161 158 c89 87 305 300 482 474 299 293 322 319 339 370 23 68 23 181 1 269 -24 92 -113 270 -186 370 -84 115 -257 282 -368 355 l-91 60 -1 308 c0 409 2 405 -188 425 -100 11 -122 10 -229 -8 -65 -11 -128 -23 -140 -25 l-23 -5 0 145 0 145 470 0 c463 0 470 0 470 20 0 20 -7 20 -5040 20 -5033 0 -5040 0 -5040 -20z m1748 -405 c6 -2 12 -17 12 -33 0 -25 5 -30 32 -36 49 -10 98 3 98 25 0 11 6 19 13 19 42 0 243 -42 263 -55 42 -27 45 -66 42 -490 l-3 -400 -230 226 c-200 197 -237 228 -281 243 -60 19 -135 24 -222 13 l-63 -8 3 263 c2 145 6 268 10 274 5 8 52 4 160 -13 84 -13 159 -26 166 -28z m7740 -231 l3 -265 -63 8 c-87 11 -162 6 -222 -13 -44 -15 -81 -46 -281 -243 l-230 -226 -3 400 c-3 424 0 463 42 490 20 13 221 55 264 55 6 0 12 -8 12 -19 0 -22 47 -34 96 -25 28 5 33 11 36 38 l3 31 160 26 c94 15 164 22 170 17 6 -5 11 -114 13 -274z m-7466 -725 c503 -485 472 -453 464 -482 -3 -14 -15 -27 -27 -30 -24 -7 3 -31 -529 483 -162 157 -298 292 -301 300 -10 23 9 50 36 50 18 0 107 -80 357 -321z m7246 304 c5 -10 7 -25 3 -33 -3 -8 -139 -143 -301 -300 -532 -514 -505 -490 -529 -483 -12 3 -24 16 -27 30 -8 29 -39 -3 464 482 341 329 367 349 390 304z m-7699 -126 c58 -57 240 -233 404 -391 163 -159 297 -296 297 -305 0 -22 -19 -41 -42 -41 -27 0 -818 768 -818 795 0 24 18 45 38 45 8 0 63 -46 121 -103z m7909 91 c32 -32 13 -54 -388 -441 -224 -217 -408 -387 -418 -387 -23 0 -42 19 -42 41 0 9 134 146 298 305 163 158 345 334 403 391 58 57 113 103 121 103 7 0 19 -5 26 -12z m-7719 -532 c187 -180 331 -326 331 -336 0 -23 -24 -42 -48 -38 -11 2 -157 136 -326 298 l-306 294 0 54 c0 30 4 52 9 50 5 -1 158 -146 340 -322z m7731 271 l0 -53 -306 -294 c-169 -162 -315 -296 -326 -298 -26 -5 -50 17 -46 41 3 18 654 656 671 657 4 0 7 -24 7 -53z m-8409 -149 l98 -93 1 -58 0 -59 -121 113 c-134 126 -145 140 -129 169 20 37 49 22 151 -72z m8889 72 c16 -29 5 -43 -129 -169 l-121 -113 0 58 0 57 98 93 c100 96 132 112 152 74z m-8945 -283 l155 -149 0 -60 0 -60 -182 177 c-101 97 -187 186 -193 197 -7 16 -4 24 14 39 14 11 29 16 37 11 7 -4 83 -74 169 -155z m9073 119 c2 -11 -62 -81 -185 -200 l-188 -184 -3 56 c-4 64 -14 51 191 244 132 124 139 129 160 115 12 -8 23 -22 25 -31z m-8419 -234 c138 -134 251 -251 251 -261 0 -22 -19 -41 -42 -41 -10 0 -121 100 -248 222 l-230 223 0 53 c0 30 4 52 9 50 5 -1 122 -113 260 -246z m7811 195 l0 -52 -230 -223 c-127 -122 -238 -222 -248 -222 -22 0 -42 19 -42 40 -1 14 497 509 513 510 4 0 7 -24 7 -53z m-8507 -309 l199 -193 -4 -55 -3 -55 -225 218 c-124 120 -229 227 -235 239 -12 27 27 63 53 48 10 -5 106 -96 215 -202z m9203 175 c6 -22 -18 -49 -211 -236 -120 -117 -226 -218 -237 -225 -17 -12 -18 -10 -18 40 l0 53 128 125 c256 252 287 279 310 273 13 -3 25 -16 28 -30z m-8577 -246 c100 -97 181 -184 181 -191 0 -18 -27 -46 -44 -46 -6 0 -85 70 -174 156 l-162 156 0 55 c0 30 4 53 9 51 5 -1 91 -83 190 -181z m7881 129 l0 -54 -162 -156 c-89 -86 -168 -156 -174 -156 -17 0 -44 28 -44 46 0 14 358 373 373 374 4 0 7 -24 7 -54z m-8395 -443 c356 -344 400 -390 400 -417 0 -26 -4 -32 -26 -34 -22 -3 -86 55 -425 383 -236 229 -400 394 -402 407 -4 21 20 48 42 48 6 0 191 -174 411 -387z m9155 373 c6 -8 10 -24 8 -35 -2 -12 -179 -191 -402 -407 -338 -326 -404 -384 -425 -382 -22 2 -26 8 -26 34 0 27 44 73 400 417 220 213 407 387 416 387 9 0 22 -7 29 -14z m-8712 -257 c65 -61 121 -117 125 -125 11 -20 -10 -54 -35 -54 -12 0 -61 37 -119 91 l-99 91 0 54 c0 30 3 54 6 54 3 0 58 -50 122 -111z m7952 57 l0 -54 -99 -91 c-58 -54 -107 -91 -119 -91 -19 0 -42 26 -42 46 0 9 242 243 253 244 4 0 7 -24 7 -54z m-8031 -248 c58 -56 110 -107 114 -115 4 -7 3 -22 -3 -33 -23 -42 -53 -25 -196 115 l-139 134 59 1 59 0 106 -102z m8067 -33 c-143 -139 -173 -157 -196 -116 -5 11 -10 22 -10 26 0 3 51 55 113 115 l112 109 60 0 60 0 -139 -134z"></path><path d="M3294 3016 l-250 -62 -175 -178 c-96 -98 -175 -181 -177 -185 -1 -4 152 -14 340 -22 l343 -15 331 173 330 173 230 51 c126 27 236 53 244 56 16 7 -820 72 -910 71 -32 0 -158 -25 -306 -62z"></path><path d="M6795 3045 c-231 -17 -413 -34 -405 -38 8 -3 118 -29 244 -56 l230 -51 330 -173 331 -173 343 15 c188 8 341 18 340 22 -2 4 -81 87 -177 185 l-175 178 -255 63 c-189 46 -273 62 -321 61 -36 0 -254 -15 -485 -33z"></path><path d="M2083 2522 l-93 -67 -490 -743 c-269 -408 -490 -745 -490 -747 0 -3 62 49 138 116 132 117 146 127 372 249 l235 127 323 483 c177 266 322 486 322 490 0 8 -205 160 -216 160 -5 0 -51 -31 -101 -68z"></path><path d="M8605 2514 c-55 -41 -101 -78 -103 -82 -1 -5 143 -226 320 -492 l323 -483 235 -127 c226 -122 240 -132 373 -249 75 -67 137 -119 137 -116 0 2 -221 339 -490 747 l-490 743 -93 67 c-50 37 -96 67 -102 67 -5 0 -55 -33 -110 -75z"></path><path d="M3076 2463 c12 -106 -47 -281 -145 -430 -208 -314 -557 -553 -809 -553 -93 0 -142 27 -187 105 -10 16 -15 12 -43 -31 l-31 -49 36 -37 c107 -110 299 -112 532 -7 197 89 392 260 540 473 154 223 190 307 198 474 l6 102 -51 0 -51 0 5 -47z"></path><path d="M7733 2408 c8 -167 43 -251 198 -473 178 -256 391 -426 642 -514 88 -30 115 -35 197 -35 112 0 174 22 233 82 l36 37 -31 49 c-28 43 -33 47 -43 31 -45 -78 -94 -105 -187 -105 -120 0 -269 57 -428 163 -108 72 -303 271 -378 385 -101 155 -160 329 -148 435 l5 47 -51 0 -51 0 6 -102z"></path><path d="M3311 2327 c-7 -9 -145 -206 -306 -439 l-294 -423 191 -192 191 -191 229 -141 c126 -78 232 -141 236 -141 4 1 181 234 394 518 213 284 424 564 468 621 62 78 78 106 68 112 -7 5 -123 65 -258 133 l-245 124 -245 11 c-135 6 -283 14 -330 17 -70 5 -88 3 -99 -9z"></path><path d="M7200 2323 l-285 -15 -245 -124 c-135 -68 -251 -128 -258 -133 -10 -6 6 -34 68 -112 44 -57 255 -337 468 -621 213 -284 390 -517 394 -518 4 0 110 63 236 141 l229 141 191 191 192 192 -303 435 -302 435 -50 1 c-28 1 -178 -5 -335 -13z"></path><path d="M2395 1328 c-60 -5 -209 -14 -330 -21 l-220 -12 -57 -349 -57 -348 80 -292 c44 -160 84 -294 88 -299 8 -8 1030 200 1044 213 5 4 -39 130 -96 281 -58 151 -144 401 -193 557 l-89 282 -30 -1 c-16 -1 -79 -6 -140 -11z"></path><path d="M8242 1043 c-52 -164 -139 -415 -194 -557 -54 -142 -96 -262 -91 -266 14 -13 1036 -221 1044 -213 4 5 44 139 88 299 l80 292 -57 348 -57 349 -50 2 c-138 7 -567 34 -615 39 l-55 6 -93 -299z"></path></g></svg>